solid filament-hole1
facet normal -1.6149673878455884e-25 4.9734857458732625e-17 -1.0
  outer loop
    vertex 21.61639418010643 37.93180976836363 0.0
    vertex 22.272733038526066 28.790189611747586 1.4099832412739487e-15
    vertex 22.204584691104206 28.272551521542546 1.4099832412739487e-15
  endloop
endfacet
facet normal -1.6149673878455884e-25 4.9734857458732625e-17 -1.0
  outer loop
    vertex 22.272733038526066 28.790189611747586 1.4099832412739487e-15
    vertex 21.61639418010643 37.93180976836363 0.0
    vertex 24.2045846165984 38.272551521542546 0.0
  endloop
endfacet
facet normal -1.6149673878455884e-25 4.9734857458732625e-17 -1.0
  outer loop
    vertex 22.272733038526066 28.790189611747586 1.4099832412739487e-15
    vertex 24.2045846165984 38.272551521542546 0.0
    vertex 22.472533883535327 29.272551521542546 1.4099832412739487e-15
  endloop
endfacet
facet normal -1.6149673878455884e-25 4.9734857458732625e-17 -1.0
  outer loop
    vertex 22.472533883535327 29.272551521542546 1.4099832412739487e-15
    vertex 24.2045846165984 38.272551521542546 0.0
    vertex 22.79037112873111 29.686765083915645 1.4099832412739487e-15
  endloop
endfacet
facet normal -1.6149673878455884e-25 4.9734857458732625e-17 -1.0
  outer loop
    vertex 22.79037112873111 29.686765083915645 1.4099832412739487e-15
    vertex 24.2045846165984 38.272551521542546 0.0
    vertex 23.204584691104206 30.004602329111425 1.4099832412739487e-15
  endloop
endfacet
facet normal -1.6149673878455884e-25 4.9734857458732625e-17 -1.0
  outer loop
    vertex 23.204584691104206 30.004602329111425 1.4099832412739487e-15
    vertex 24.2045846165984 38.272551521542546 0.0
    vertex 23.686946600899162 30.204403174120685 1.4099832412739487e-15
  endloop
endfacet
facet normal -1.6149673878455884e-25 4.9734857458732625e-17 -1.0
  outer loop
    vertex 23.686946600899162 30.204403174120685 1.4099832412739487e-15
    vertex 24.2045846165984 38.272551521542546 0.0
    vertex 24.204584691104206 30.27255152154255 1.4099832412739487e-15
  endloop
endfacet
facet normal -1.6149673878455884e-25 4.9734857458732625e-17 -1.0
  outer loop
    vertex 24.204584691104206 30.27255152154255 1.4099832412739487e-15
    vertex 24.2045846165984 38.272551521542546 0.0
    vertex 26.792775058167813 37.93180980693067 0.0
  endloop
endfacet
facet normal -1.6149673878455884e-25 4.9734857458732625e-17 -1.0
  outer loop
    vertex 24.204584691104206 30.27255152154255 1.4099832412739487e-15
    vertex 26.792775058167813 37.93180980693067 0.0
    vertex 24.72222278130925 30.204403174120685 1.4099832412739487e-15
  endloop
endfacet
facet normal -1.6149673878455884e-25 4.9734857458732625e-17 -1.0
  outer loop
    vertex 24.72222278130925 30.204403174120685 1.4099832412739487e-15
    vertex 26.792775058167813 37.93180980693067 0.0
    vertex 25.204584691104206 30.004602329111425 1.4099832412739487e-15
  endloop
endfacet
facet normal -1.6149673878455884e-25 4.9734857458732625e-17 -1.0
  outer loop
    vertex 25.204584691104206 30.004602329111425 1.4099832412739487e-15
    vertex 26.792775058167813 37.93180980693067 0.0
    vertex 25.618798253477305 29.686765083915645 1.4099832412739487e-15
  endloop
endfacet
facet normal -1.6149673878455884e-25 4.9734857458732625e-17 -1.0
  outer loop
    vertex 25.618798253477305 29.686765083915645 1.4099832412739487e-15
    vertex 26.792775058167813 37.93180980693067 0.0
    vertex 25.936635498673084 29.27255152154255 1.4099832412739487e-15
  endloop
endfacet
facet normal -1.6149673878455884e-25 4.9734857458732625e-17 -1.0
  outer loop
    vertex 25.936635498673084 29.27255152154255 1.4099832412739487e-15
    vertex 26.792775058167813 37.93180980693067 0.0
    vertex 26.136436343682345 28.790189611747586 1.4099832412739487e-15
  endloop
endfacet
facet normal -1.6149673878455884e-25 4.9734857458732625e-17 -1.0
  outer loop
    vertex 26.136436343682345 28.790189611747586 1.4099832412739487e-15
    vertex 26.792775058167813 37.93180980693067 0.0
    vertex 26.20458469110421 28.272551521542546 1.4099832412739487e-15
  endloop
endfacet
facet normal -1.6149673878455884e-25 4.9734857458732625e-17 -1.0
  outer loop
    vertex 14.545326424999603 30.86074196057324 0.0
    vertex 14.204584691104218 15.272551521542551 -1.1749860343949574e-15
    vertex 14.204584691104207 28.272551521542546 0.0
  endloop
endfacet
facet normal -1.6149673878455884e-25 4.9734857458732625e-17 -1.0
  outer loop
    vertex 14.204584691104218 15.272551521542551 -1.1749860343949574e-15
    vertex 14.545326424999603 30.86074196057324 0.0
    vertex 34.2045846911042 15.272551521542551 -1.1749860343949574e-15
  endloop
endfacet
facet normal -1.6149673878455884e-25 4.9734857458732625e-17 -1.0
  outer loop
    vertex 34.2045846911042 15.272551521542551 -1.1749860343949574e-15
    vertex 14.545326424999603 30.86074196057324 0.0
    vertex 15.544330640842187 33.272551500034574 0.0
  endloop
endfacet
facet normal -1.6149673878455884e-25 4.9734857458732625e-17 -1.0
  outer loop
    vertex 34.2045846911042 15.272551521542551 -1.1749860343949574e-15
    vertex 15.544330640842187 33.272551500034574 0.0
    vertex 22.79037112873111 26.85833795916945 1.762479051592436e-15
  endloop
endfacet
facet normal -1.6149673878455884e-25 4.9734857458732625e-17 -1.0
  outer loop
    vertex 22.79037112873111 26.85833795916945 1.762479051592436e-15
    vertex 15.544330640842187 33.272551500034574 0.0
    vertex 22.472533883535327 27.272551521542542 1.762479051592436e-15
  endloop
endfacet
facet normal -1.6149673878455884e-25 4.9734857458732625e-17 -1.0
  outer loop
    vertex 22.472533883535327 27.272551521542542 1.762479051592436e-15
    vertex 15.544330640842187 33.272551500034574 0.0
    vertex 17.133516852896953 35.34361930706624 0.0
  endloop
endfacet
facet normal -1.6149673878455884e-25 4.9734857458732625e-17 -1.0
  outer loop
    vertex 22.472533883535327 27.272551521542542 1.762479051592436e-15
    vertex 17.133516852896953 35.34361930706624 0.0
    vertex 22.272733038526066 27.754913431337503 1.762479051592436e-15
  endloop
endfacet
facet normal -1.6149673878455884e-25 4.9734857458732625e-17 -1.0
  outer loop
    vertex 22.272733038526066 27.754913431337503 1.762479051592436e-15
    vertex 17.133516852896953 35.34361930706624 0.0
    vertex 19.20458464808826 36.93280553455166 0.0
  endloop
endfacet
facet normal -1.6149673878455884e-25 4.9734857458732625e-17 -1.0
  outer loop
    vertex 22.272733038526066 27.754913431337503 1.762479051592436e-15
    vertex 19.20458464808826 36.93280553455166 0.0
    vertex 22.204584691104206 28.272551521542546 1.4099832412739487e-15
  endloop
endfacet
facet normal -1.6149673878455884e-25 4.9734857458732625e-17 -1.0
  outer loop
    vertex 22.204584691104206 28.272551521542546 1.4099832412739487e-15
    vertex 19.20458464808826 36.93280553455166 0.0
    vertex 21.61639418010643 37.93180976836363 0.0
  endloop
endfacet
facet normal -1.6149673878455884e-25 4.9734857458732625e-17 -1.0
  outer loop
    vertex 34.2045846911042 15.272551521542551 -1.1749860343949574e-15
    vertex 22.79037112873111 26.85833795916945 1.762479051592436e-15
    vertex 23.204584691104206 26.540500713973668 1.762479051592436e-15
  endloop
endfacet
facet normal -1.6149673878455884e-25 4.9734857458732625e-17 -1.0
  outer loop
    vertex 34.2045846911042 15.272551521542551 -1.1749860343949574e-15
    vertex 23.204584691104206 26.540500713973668 1.762479051592436e-15
    vertex 23.686946600899166 26.34069986896441 1.762479051592436e-15
  endloop
endfacet
facet normal -1.6149673878455884e-25 4.9734857458732625e-17 -1.0
  outer loop
    vertex 34.2045846911042 15.272551521542551 -1.1749860343949574e-15
    vertex 23.686946600899166 26.34069986896441 1.762479051592436e-15
    vertex 24.204584691104206 26.272551521542546 1.762479051592436e-15
  endloop
endfacet
facet normal -1.6149673878455884e-25 4.9734857458732625e-17 -1.0
  outer loop
    vertex 34.2045846911042 15.272551521542551 -1.1749860343949574e-15
    vertex 24.204584691104206 26.272551521542546 1.762479051592436e-15
    vertex 24.72222278130925 26.34069986896441 1.762479051592436e-15
  endloop
endfacet
facet normal -1.6149673878455884e-25 4.9734857458732625e-17 -1.0
  outer loop
    vertex 34.2045846911042 15.272551521542551 -1.1749860343949574e-15
    vertex 24.72222278130925 26.34069986896441 1.762479051592436e-15
    vertex 25.204584691104206 26.540500713973668 1.762479051592436e-15
  endloop
endfacet
facet normal -1.6149673878455884e-25 4.9734857458732625e-17 -1.0
  outer loop
    vertex 34.2045846911042 15.272551521542551 -1.1749860343949574e-15
    vertex 25.204584691104206 26.540500713973668 1.762479051592436e-15
    vertex 25.618798253477305 26.85833795916945 1.762479051592436e-15
  endloop
endfacet
facet normal -1.6149673878455884e-25 4.9734857458732625e-17 -1.0
  outer loop
    vertex 34.2045846911042 15.272551521542551 -1.1749860343949574e-15
    vertex 25.618798253477305 26.85833795916945 1.762479051592436e-15
    vertex 25.936635498673084 27.27255152154255 1.762479051592436e-15
  endloop
endfacet
facet normal -1.6149673878455884e-25 4.9734857458732625e-17 -1.0
  outer loop
    vertex 34.2045846911042 15.272551521542551 -1.1749860343949574e-15
    vertex 25.936635498673084 27.27255152154255 1.762479051592436e-15
    vertex 26.136436343682345 27.754913431337506 1.762479051592436e-15
  endloop
endfacet
facet normal -1.6149673878455884e-25 4.9734857458732625e-17 -1.0
  outer loop
    vertex 34.2045846911042 15.272551521542551 -1.1749860343949574e-15
    vertex 26.136436343682345 27.754913431337506 1.762479051592436e-15
    vertex 26.20458469110421 28.272551521542546 1.4099832412739487e-15
  endloop
endfacet
facet normal -1.6149673878455884e-25 4.9734857458732625e-17 -1.0
  outer loop
    vertex 34.2045846911042 15.272551521542551 -1.1749860343949574e-15
    vertex 26.20458469110421 28.272551521542546 1.4099832412739487e-15
    vertex 26.792775058167813 37.93180980693067 0.0
  endloop
endfacet
facet normal -1.6149673878455884e-25 4.9734857458732625e-17 -1.0
  outer loop
    vertex 34.2045846911042 15.272551521542551 -1.1749860343949574e-15
    vertex 26.792775058167813 37.93180980693067 0.0
    vertex 29.20458460507231 36.93280560905747 0.0
  endloop
endfacet
facet normal -1.6149673878455884e-25 4.9734857458732625e-17 -1.0
  outer loop
    vertex 34.2045846911042 15.272551521542551 -1.1749860343949574e-15
    vertex 29.20458460507231 36.93280560905747 0.0
    vertex 31.275652423944333 35.34361941243336 0.0
  endloop
endfacet
facet normal -1.6149673878455884e-25 4.9734857458732625e-17 -1.0
  outer loop
    vertex 34.2045846911042 15.272551521542551 -1.1749860343949574e-15
    vertex 31.275652423944333 35.34361941243336 0.0
    vertex 32.86483866686042 33.272551629082415 0.0
  endloop
endfacet
facet normal -1.6149673878455884e-25 4.9734857458732625e-17 -1.0
  outer loop
    vertex 34.2045846911042 15.272551521542551 -1.1749860343949574e-15
    vertex 32.86483866686042 33.272551629082415 0.0
    vertex 33.863842918641765 30.86074210450741 0.0
  endloop
endfacet
facet normal -1.6149673878455884e-25 4.9734857458732625e-17 -1.0
  outer loop
    vertex 34.2045846911042 15.272551521542551 -1.1749860343949574e-15
    vertex 33.863842918641765 30.86074210450741 0.0
    vertex 34.2045846911042 28.272551521542546 0.0
  endloop
endfacet
facet normal -0.9914448614548519 0.13052619160448142 0.0
  outer loop
    vertex 14.545326424999603 30.86074196057324 19.999999999999996
    vertex 14.204584691104207 28.272551521542546 0.0
    vertex 14.204584691104207 28.272551521542546 19.999999999999996
  endloop
endfacet
facet normal -0.9914448614548519 0.13052619160448142 0.0
  outer loop
    vertex 14.204584691104207 28.272551521542546 0.0
    vertex 14.545326424999603 30.86074196057324 19.999999999999996
    vertex 14.545326424999603 30.86074196057324 0.0
  endloop
endfacet
facet normal -0.9238795332240901 0.3826834306442302 0.0
  outer loop
    vertex 15.544330640842187 33.272551500034574 19.999999999999996
    vertex 14.545326424999603 30.86074196057324 0.0
    vertex 14.545326424999603 30.86074196057324 19.999999999999996
  endloop
endfacet
facet normal -0.9238795332240901 0.3826834306442302 0.0
  outer loop
    vertex 14.545326424999603 30.86074196057324 0.0
    vertex 15.544330640842187 33.272551500034574 19.999999999999996
    vertex 15.544330640842187 33.272551500034574 0.0
  endloop
endfacet
facet normal -0.7933533421810794 0.6087614265458277 0.0
  outer loop
    vertex 17.133516852896953 35.34361930706624 19.999999999999996
    vertex 15.544330640842187 33.272551500034574 0.0
    vertex 15.544330640842187 33.272551500034574 19.999999999999996
  endloop
endfacet
facet normal -0.7933533421810794 0.6087614265458277 0.0
  outer loop
    vertex 15.544330640842187 33.272551500034574 0.0
    vertex 17.133516852896953 35.34361930706624 19.999999999999996
    vertex 17.133516852896953 35.34361930706624 0.0
  endloop
endfacet
facet normal -0.6087614324567703 0.7933533376454537 0.0
  outer loop
    vertex 17.133516852896953 35.34361930706624 19.999999999999996
    vertex 19.20458464808826 36.93280553455166 0.0
    vertex 17.133516852896953 35.34361930706624 0.0
  endloop
endfacet
facet normal -0.6087614324567703 0.7933533376454537 0.0
  outer loop
    vertex 19.20458464808826 36.93280553455166 0.0
    vertex 17.133516852896953 35.34361930706624 19.999999999999996
    vertex 19.20458464808826 36.93280553455166 19.999999999999996
  endloop
endfacet
facet normal -0.3826834375276691 0.9238795303728764 0.0
  outer loop
    vertex 19.20458464808826 36.93280553455166 19.999999999999996
    vertex 21.61639418010643 37.93180976836363 0.0
    vertex 19.20458464808826 36.93280553455166 0.0
  endloop
endfacet
facet normal -0.3826834375276691 0.9238795303728764 0.0
  outer loop
    vertex 21.61639418010643 37.93180976836363 0.0
    vertex 19.20458464808826 36.93280553455166 19.999999999999996
    vertex 21.61639418010643 37.93180976836363 19.999999999999996
  endloop
endfacet
facet normal -0.13052619899132178 0.9914448604823559 0.0
  outer loop
    vertex 21.61639418010643 37.93180976836363 19.999999999999996
    vertex 24.2045846165984 38.272551521542546 0.0
    vertex 21.61639418010643 37.93180976836363 0.0
  endloop
endfacet
facet normal -0.13052619899132178 0.9914448604823559 0.0
  outer loop
    vertex 24.2045846165984 38.272551521542546 0.0
    vertex 21.61639418010643 37.93180976836363 19.999999999999996
    vertex 24.2045846165984 38.272551521542546 19.999999999999996
  endloop
endfacet
facet normal 0.130526184217641 0.9914448624273478 0.0
  outer loop
    vertex 24.2045846165984 38.272551521542546 19.999999999999996
    vertex 26.792775058167813 37.93180980693067 0.0
    vertex 24.2045846165984 38.272551521542546 0.0
  endloop
endfacet
facet normal 0.130526184217641 0.9914448624273478 0.0
  outer loop
    vertex 26.792775058167813 37.93180980693067 0.0
    vertex 24.2045846165984 38.272551521542546 19.999999999999996
    vertex 26.792775058167813 37.93180980693067 19.999999999999996
  endloop
endfacet
facet normal 0.3826834237607922 0.9238795360753035 0.0
  outer loop
    vertex 26.792775058167813 37.93180980693067 19.999999999999996
    vertex 29.20458460507231 36.93280560905747 0.0
    vertex 26.792775058167813 37.93180980693067 0.0
  endloop
endfacet
facet normal 0.3826834237607922 0.9238795360753035 0.0
  outer loop
    vertex 29.20458460507231 36.93280560905747 0.0
    vertex 26.792775058167813 37.93180980693067 19.999999999999996
    vertex 29.20458460507231 36.93280560905747 19.999999999999996
  endloop
endfacet
facet normal 0.6087614206348855 0.7933533467167048 0.0
  outer loop
    vertex 29.20458460507231 36.93280560905747 19.999999999999996
    vertex 31.275652423944333 35.34361941243336 0.0
    vertex 29.20458460507231 36.93280560905747 0.0
  endloop
endfacet
facet normal 0.6087614206348855 0.7933533467167048 0.0
  outer loop
    vertex 31.275652423944333 35.34361941243336 0.0
    vertex 29.20458460507231 36.93280560905747 19.999999999999996
    vertex 31.275652423944333 35.34361941243336 19.999999999999996
  endloop
endfacet
facet normal 0.7933533331098254 0.608761438367716 0.0
  outer loop
    vertex 31.275652423944333 35.34361941243336 0.0
    vertex 32.86483866686042 33.272551629082415 19.999999999999996
    vertex 32.86483866686042 33.272551629082415 0.0
  endloop
endfacet
facet normal 0.7933533331098254 0.608761438367716 0.0
  outer loop
    vertex 32.86483866686042 33.272551629082415 19.999999999999996
    vertex 31.275652423944333 35.34361941243336 0.0
    vertex 31.275652423944333 35.34361941243336 19.999999999999996
  endloop
endfacet
facet normal 0.923879527521663 0.3826834444111072 0.0
  outer loop
    vertex 32.86483866686042 33.272551629082415 0.0
    vertex 33.863842918641765 30.86074210450741 19.999999999999996
    vertex 33.863842918641765 30.86074210450741 0.0
  endloop
endfacet
facet normal 0.923879527521663 0.3826834444111072 0.0
  outer loop
    vertex 33.863842918641765 30.86074210450741 19.999999999999996
    vertex 32.86483866686042 33.272551629082415 0.0
    vertex 32.86483866686042 33.272551629082415 19.999999999999996
  endloop
endfacet
facet normal -1.0 -1.3122919262256484e-16 -1.7376111273763866e-16
  outer loop
    vertex 14.204584691104207 3.2725515215425522 19.999999999999996
    vertex 14.204584691104218 9.272551521542551 14.999999999999998
    vertex 14.204584691104218 3.2725515215425522 8.999999999999998
  endloop
endfacet
facet normal -1.0 -1.3122919262256484e-16 -1.7376111273763866e-16
  outer loop
    vertex 14.204584691104218 9.272551521542551 14.999999999999998
    vertex 14.204584691104207 3.2725515215425522 19.999999999999996
    vertex 14.204584691104207 28.272551521542546 19.999999999999996
  endloop
endfacet
facet normal -1.0 -1.3122919262256484e-16 -1.7376111273763866e-16
  outer loop
    vertex 14.204584691104218 9.272551521542551 14.999999999999998
    vertex 14.204584691104207 28.272551521542546 19.999999999999996
    vertex 14.204584691104218 15.272551521542551 14.999999999999998
  endloop
endfacet
facet normal -1.0 -1.3122919262256484e-16 -1.7376111273763866e-16
  outer loop
    vertex 14.204584691104218 15.272551521542551 14.999999999999998
    vertex 14.204584691104207 28.272551521542546 19.999999999999996
    vertex 14.204584691104218 15.272551521542551 -1.1749860343949574e-15
  endloop
endfacet
facet normal -1.0 -1.3122919262256484e-16 -1.7376111273763866e-16
  outer loop
    vertex 14.204584691104218 15.272551521542551 -1.1749860343949574e-15
    vertex 14.204584691104207 28.272551521542546 19.999999999999996
    vertex 14.204584691104207 28.272551521542546 0.0
  endloop
endfacet
facet normal -1.0 -1.3122919262256484e-16 -1.7376111273763866e-16
  outer loop
    vertex 14.204584691104218 9.272551521542551 8.999999999999998
    vertex 14.204584691104218 3.2725515215425522 8.999999999999998
    vertex 14.204584691104218 9.272551521542551 14.999999999999998
  endloop
endfacet
facet normal 1.386921516792016e-31 -1.8912885935013104e-32 1.0
  outer loop
    vertex 14.204584691104207 3.2725515215425522 19.999999999999996
    vertex 18.349406221103614 22.821231948774734 19.999999999999996
    vertex 14.204584691104207 28.272551521542546 19.999999999999996
  endloop
endfacet
facet normal 1.386921516792016e-31 -1.8912885935013104e-32 1.0
  outer loop
    vertex 18.349406221103614 22.821231948774734 19.999999999999996
    vertex 14.204584691104207 3.2725515215425522 19.999999999999996
    vertex 34.2045846911042 3.2725515215425522 19.999999999999996
  endloop
endfacet
facet normal 1.386921516792016e-31 -1.8912885935013104e-32 1.0
  outer loop
    vertex 14.204584691104207 28.272551521542546 19.999999999999996
    vertex 18.349406221103614 22.821231948774734 19.999999999999996
    vertex 17.138011263026474 24.522412859361417 19.999999999999996
  endloop
endfacet
facet normal 1.386921516792016e-31 -1.8912885935013104e-32 1.0
  outer loop
    vertex 14.204584691104207 28.272551521542546 19.999999999999996
    vertex 17.138011263026474 24.522412859361417 19.999999999999996
    vertex 14.545326424999603 30.86074196057324 19.999999999999996
  endloop
endfacet
facet normal 1.386921516792016e-31 -1.8912885935013104e-32 1.0
  outer loop
    vertex 14.545326424999603 30.86074196057324 19.999999999999996
    vertex 17.138011263026474 24.522412859361417 19.999999999999996
    vertex 16.40819160600808 26.479159522378584 19.999999999999996
  endloop
endfacet
facet normal 1.386921516792016e-31 -1.8912885935013104e-32 1.0
  outer loop
    vertex 14.545326424999603 30.86074196057324 19.999999999999996
    vertex 16.40819160600808 26.479159522378584 19.999999999999996
    vertex 15.544330640842187 33.272551500034574 19.999999999999996
  endloop
endfacet
facet normal 1.386921516792016e-31 -1.8912885935013104e-32 1.0
  outer loop
    vertex 15.544330640842187 33.272551500034574 19.999999999999996
    vertex 16.40819160600808 26.479159522378584 19.999999999999996
    vertex 16.20968325359024 28.558122886418364 19.999999999999996
  endloop
endfacet
facet normal 1.386921516792016e-31 -1.8912885935013104e-32 1.0
  outer loop
    vertex 16.20968325359024 28.558122886418364 19.999999999999996
    vertex 16.40819160600808 26.479159522378584 19.999999999999996
    vertex 16.236950834212273 28.272551521542546 19.999999999999996
  endloop
endfacet
facet normal 1.386921516792016e-31 -1.8912885935013104e-32 1.0
  outer loop
    vertex 18.349406221103614 22.821231948774734 19.999999999999996
    vertex 34.2045846911042 3.2725515215425522 19.999999999999996
    vertex 19.959821915771368 21.491549458340632 19.999999999999996
  endloop
endfacet
facet normal 1.386921516792016e-31 -1.8912885935013104e-32 1.0
  outer loop
    vertex 19.959821915771368 21.491549458340632 19.999999999999996
    vertex 34.2045846911042 3.2725515215425522 19.999999999999996
    vertex 21.859511178775897 20.62398105237799 19.999999999999996
  endloop
endfacet
facet normal 1.386921516792016e-31 -1.8912885935013104e-32 1.0
  outer loop
    vertex 21.859511178775897 20.62398105237799 19.999999999999996
    vertex 34.2045846911042 3.2725515215425522 19.999999999999996
    vertex 23.919013326228384 20.27765008402858 19.999999999999996
  endloop
endfacet
facet normal 1.386921516792016e-31 -1.8912885935013104e-32 1.0
  outer loop
    vertex 23.919013326228384 20.27765008402858 19.999999999999996
    vertex 34.2045846911042 3.2725515215425522 19.999999999999996
    vertex 25.997976690268167 20.476158436446426 19.999999999999996
  endloop
endfacet
facet normal 1.386921516792016e-31 -1.8912885935013104e-32 1.0
  outer loop
    vertex 25.997976690268167 20.476158436446426 19.999999999999996
    vertex 34.2045846911042 3.2725515215425522 19.999999999999996
    vertex 27.95472335328533 21.205978093464815 19.999999999999996
  endloop
endfacet
facet normal 1.386921516792016e-31 -1.8912885935013104e-32 1.0
  outer loop
    vertex 27.95472335328533 21.205978093464815 19.999999999999996
    vertex 34.2045846911042 3.2725515215425522 19.999999999999996
    vertex 29.655904263872017 22.417373051541954 19.999999999999996
  endloop
endfacet
facet normal 1.386921516792016e-31 -1.8912885935013104e-32 1.0
  outer loop
    vertex 29.655904263872017 22.417373051541954 19.999999999999996
    vertex 34.2045846911042 3.2725515215425522 19.999999999999996
    vertex 30.985586754306116 24.027788746209705 19.999999999999996
  endloop
endfacet
facet normal 1.386921516792016e-31 -1.8912885935013104e-32 1.0
  outer loop
    vertex 30.985586754306116 24.027788746209705 19.999999999999996
    vertex 34.2045846911042 3.2725515215425522 19.999999999999996
    vertex 31.853155160268763 25.927478009214234 19.999999999999996
  endloop
endfacet
facet normal 1.386921516792016e-31 -1.8912885935013104e-32 1.0
  outer loop
    vertex 31.853155160268763 25.927478009214234 19.999999999999996
    vertex 34.2045846911042 3.2725515215425522 19.999999999999996
    vertex 32.199486128618176 27.986980156666725 19.999999999999996
  endloop
endfacet
facet normal 1.386921516792016e-31 -1.8912885935013104e-32 1.0
  outer loop
    vertex 32.199486128618176 27.986980156666725 19.999999999999996
    vertex 34.2045846911042 3.2725515215425522 19.999999999999996
    vertex 32.86483866686042 33.272551629082415 19.999999999999996
  endloop
endfacet
facet normal 1.386921516792016e-31 -1.8912885935013104e-32 1.0
  outer loop
    vertex 32.86483866686042 33.272551629082415 19.999999999999996
    vertex 34.2045846911042 3.2725515215425522 19.999999999999996
    vertex 33.863842918641765 30.86074210450741 19.999999999999996
  endloop
endfacet
facet normal 1.386921516792016e-31 -1.8912885935013104e-32 1.0
  outer loop
    vertex 33.863842918641765 30.86074210450741 19.999999999999996
    vertex 34.2045846911042 3.2725515215425522 19.999999999999996
    vertex 34.2045846911042 28.272551521542546 19.999999999999996
  endloop
endfacet
facet normal 1.386921516792016e-31 -1.8912885935013104e-32 1.0
  outer loop
    vertex 16.20968325359024 28.558122886418364 19.999999999999996
    vertex 17.133516852896953 35.34361930706624 19.999999999999996
    vertex 15.544330640842187 33.272551500034574 19.999999999999996
  endloop
endfacet
facet normal 1.386921516792016e-31 -1.8912885935013104e-32 1.0
  outer loop
    vertex 17.133516852896953 35.34361930706624 19.999999999999996
    vertex 16.20968325359024 28.558122886418364 19.999999999999996
    vertex 16.556014221939648 30.617625033870855 19.999999999999996
  endloop
endfacet
facet normal 1.386921516792016e-31 -1.8912885935013104e-32 1.0
  outer loop
    vertex 17.133516852896953 35.34361930706624 19.999999999999996
    vertex 16.556014221939648 30.617625033870855 19.999999999999996
    vertex 17.423582627902295 32.51731429687539 19.999999999999996
  endloop
endfacet
facet normal 1.386921516792016e-31 -1.8912885935013104e-32 1.0
  outer loop
    vertex 17.133516852896953 35.34361930706624 19.999999999999996
    vertex 17.423582627902295 32.51731429687539 19.999999999999996
    vertex 19.20458464808826 36.93280553455166 19.999999999999996
  endloop
endfacet
facet normal 1.386921516792016e-31 -1.8912885935013104e-32 1.0
  outer loop
    vertex 19.20458464808826 36.93280553455166 19.999999999999996
    vertex 17.423582627902295 32.51731429687539 19.999999999999996
    vertex 18.75326511833639 34.12772999154314 19.999999999999996
  endloop
endfacet
facet normal 1.386921516792016e-31 -1.8912885935013104e-32 1.0
  outer loop
    vertex 19.20458464808826 36.93280553455166 19.999999999999996
    vertex 18.75326511833639 34.12772999154314 19.999999999999996
    vertex 20.454446028923073 35.33912494962028 19.999999999999996
  endloop
endfacet
facet normal 1.386921516792016e-31 -1.8912885935013104e-32 1.0
  outer loop
    vertex 19.20458464808826 36.93280553455166 19.999999999999996
    vertex 20.454446028923073 35.33912494962028 19.999999999999996
    vertex 21.61639418010643 37.93180976836363 19.999999999999996
  endloop
endfacet
facet normal 1.386921516792016e-31 -1.8912885935013104e-32 1.0
  outer loop
    vertex 21.61639418010643 37.93180976836363 19.999999999999996
    vertex 20.454446028923073 35.33912494962028 19.999999999999996
    vertex 22.411192691940247 36.068944606638674 19.999999999999996
  endloop
endfacet
facet normal 1.386921516792016e-31 -1.8912885935013104e-32 1.0
  outer loop
    vertex 21.61639418010643 37.93180976836363 19.999999999999996
    vertex 22.411192691940247 36.068944606638674 19.999999999999996
    vertex 24.2045846165984 38.272551521542546 19.999999999999996
  endloop
endfacet
facet normal 1.386921516792016e-31 -1.8912885935013104e-32 1.0
  outer loop
    vertex 24.2045846165984 38.272551521542546 19.999999999999996
    vertex 22.411192691940247 36.068944606638674 19.999999999999996
    vertex 24.49015605598003 36.26745295905651 19.999999999999996
  endloop
endfacet
facet normal 1.386921516792016e-31 -1.8912885935013104e-32 1.0
  outer loop
    vertex 24.2045846165984 38.272551521542546 19.999999999999996
    vertex 24.49015605598003 36.26745295905651 19.999999999999996
    vertex 26.792775058167813 37.93180980693067 19.999999999999996
  endloop
endfacet
facet normal 1.386921516792016e-31 -1.8912885935013104e-32 1.0
  outer loop
    vertex 26.792775058167813 37.93180980693067 19.999999999999996
    vertex 24.49015605598003 36.26745295905651 19.999999999999996
    vertex 26.549658203432518 35.9211219907071 19.999999999999996
  endloop
endfacet
facet normal 1.386921516792016e-31 -1.8912885935013104e-32 1.0
  outer loop
    vertex 26.792775058167813 37.93180980693067 19.999999999999996
    vertex 26.549658203432518 35.9211219907071 19.999999999999996
    vertex 28.449347466437047 35.053553584744456 19.999999999999996
  endloop
endfacet
facet normal 1.386921516792016e-31 -1.8912885935013104e-32 1.0
  outer loop
    vertex 26.792775058167813 37.93180980693067 19.999999999999996
    vertex 28.449347466437047 35.053553584744456 19.999999999999996
    vertex 29.20458460507231 36.93280560905747 19.999999999999996
  endloop
endfacet
facet normal 1.386921516792016e-31 -1.8912885935013104e-32 1.0
  outer loop
    vertex 29.20458460507231 36.93280560905747 19.999999999999996
    vertex 28.449347466437047 35.053553584744456 19.999999999999996
    vertex 30.0597631611048 33.72387109431036 19.999999999999996
  endloop
endfacet
facet normal 1.386921516792016e-31 -1.8912885935013104e-32 1.0
  outer loop
    vertex 29.20458460507231 36.93280560905747 19.999999999999996
    vertex 30.0597631611048 33.72387109431036 19.999999999999996
    vertex 31.275652423944333 35.34361941243336 19.999999999999996
  endloop
endfacet
facet normal 1.386921516792016e-31 -1.8912885935013104e-32 1.0
  outer loop
    vertex 31.275652423944333 35.34361941243336 19.999999999999996
    vertex 30.0597631611048 33.72387109431036 19.999999999999996
    vertex 31.27115811918194 32.022690183723675 19.999999999999996
  endloop
endfacet
facet normal 1.386921516792016e-31 -1.8912885935013104e-32 1.0
  outer loop
    vertex 31.275652423944333 35.34361941243336 19.999999999999996
    vertex 31.27115811918194 32.022690183723675 19.999999999999996
    vertex 32.00097777620033 30.065943520706508 19.999999999999996
  endloop
endfacet
facet normal 1.386921516792016e-31 -1.8912885935013104e-32 1.0
  outer loop
    vertex 31.275652423944333 35.34361941243336 19.999999999999996
    vertex 32.00097777620033 30.065943520706508 19.999999999999996
    vertex 32.86483866686042 33.272551629082415 19.999999999999996
  endloop
endfacet
facet normal 1.386921516792016e-31 -1.8912885935013104e-32 1.0
  outer loop
    vertex 32.86483866686042 33.272551629082415 19.999999999999996
    vertex 32.00097777620033 30.065943520706508 19.999999999999996
    vertex 32.17221854799613 28.272551521542546 19.999999999999996
  endloop
endfacet
facet normal 1.386921516792016e-31 -1.8912885935013104e-32 1.0
  outer loop
    vertex 32.86483866686042 33.272551629082415 19.999999999999996
    vertex 32.17221854799613 28.272551521542546 19.999999999999996
    vertex 32.199486128618176 27.986980156666725 19.999999999999996
  endloop
endfacet
facet normal 0.9954723112847053 0.09505197244395912 3.1519915557212e-19
  outer loop
    vertex 16.236950834212273 28.272551521542546 4.999999999999994
    vertex 16.40819160600808 26.479159522378584 19.999999999999996
    vertex 16.40819160600808 26.479159522378584 4.999999999999994
  endloop
endfacet
facet normal 0.9954723112847053 0.09505197244395912 3.1519915557212e-19
  outer loop
    vertex 16.40819160600808 26.479159522378584 19.999999999999996
    vertex 16.236950834212273 28.272551521542546 4.999999999999994
    vertex 16.236950834212273 28.272551521542546 19.999999999999996
  endloop
endfacet
facet normal 0.9954723112847053 0.09505197244395912 3.1519915557212e-19
  outer loop
    vertex 16.236950834212273 28.272551521542546 19.999999999999996
    vertex 16.236950834212273 28.272551521542546 4.999999999999994
    vertex 16.20968325359024 28.558122886418364 4.999999999999992
  endloop
endfacet
facet normal 0.9954723112847053 0.09505197244395912 3.1519915557212e-19
  outer loop
    vertex 16.236950834212273 28.272551521542546 19.999999999999996
    vertex 16.20968325359024 28.558122886418364 4.999999999999992
    vertex 16.20968325359024 28.558122886418364 19.999999999999996
  endloop
endfacet
facet normal 0.9369511540825106 0.349460348056044 0.0
  outer loop
    vertex 16.40819160600808 26.479159522378584 4.999999999999994
    vertex 17.138011263026474 24.522412859361417 19.999999999999996
    vertex 17.138011263026474 24.522412859361417 4.999999999999994
  endloop
endfacet
facet normal 0.9369511540825106 0.349460348056044 0.0
  outer loop
    vertex 17.138011263026474 24.522412859361417 19.999999999999996
    vertex 16.40819160600808 26.479159522378584 4.999999999999994
    vertex 16.40819160600808 26.479159522378584 19.999999999999996
  endloop
endfacet
facet normal 0.8145783241145848 0.5800535784586409 0.0
  outer loop
    vertex 17.138011263026474 24.522412859361417 4.999999999999994
    vertex 18.349406221103614 22.821231948774734 19.999999999999996
    vertex 18.349406221103614 22.821231948774734 4.999999999999994
  endloop
endfacet
facet normal 0.8145783241145848 0.5800535784586409 0.0
  outer loop
    vertex 18.349406221103614 22.821231948774734 19.999999999999996
    vertex 17.138011263026474 24.522412859361417 4.999999999999994
    vertex 17.138011263026474 24.522412859361417 19.999999999999996
  endloop
endfacet
facet normal 0.6366933275125803 0.771117116073141 0.0
  outer loop
    vertex 18.349406221103614 22.821231948774734 19.999999999999996
    vertex 19.959821915771368 21.491549458340632 4.999999999999994
    vertex 18.349406221103614 22.821231948774734 4.999999999999994
  endloop
endfacet
facet normal 0.6366933275125803 0.771117116073141 0.0
  outer loop
    vertex 19.959821915771368 21.491549458340632 4.999999999999994
    vertex 18.349406221103614 22.821231948774734 19.999999999999996
    vertex 19.959821915771368 21.491549458340632 19.999999999999996
  endloop
endfacet
facet normal 0.41541873282606495 0.9096302965585449 0.0
  outer loop
    vertex 19.959821915771368 21.491549458340632 19.999999999999996
    vertex 21.859511178775897 20.62398105237799 4.999999999999994
    vertex 19.959821915771368 21.491549458340632 4.999999999999994
  endloop
endfacet
facet normal 0.41541873282606495 0.9096302965585449 0.0
  outer loop
    vertex 21.859511178775897 20.62398105237799 4.999999999999994
    vertex 19.959821915771368 21.491549458340632 19.999999999999996
    vertex 21.859511178775897 20.62398105237799 19.999999999999996
  endloop
endfacet
facet normal 0.16583403800936777 0.9861536755686244 0.0
  outer loop
    vertex 21.859511178775897 20.62398105237799 19.999999999999996
    vertex 23.919013326228384 20.27765008402858 4.999999999999994
    vertex 21.859511178775897 20.62398105237799 4.999999999999994
  endloop
endfacet
facet normal 0.16583403800936777 0.9861536755686244 0.0
  outer loop
    vertex 23.919013326228384 20.27765008402858 4.999999999999994
    vertex 21.859511178775897 20.62398105237799 19.999999999999996
    vertex 23.919013326228384 20.27765008402858 19.999999999999996
  endloop
endfacet
facet normal -0.09505197244395898 0.9954723112847051 -0.0
  outer loop
    vertex 23.919013326228384 20.27765008402858 19.999999999999996
    vertex 25.997976690268167 20.476158436446426 4.999999999999994
    vertex 23.919013326228384 20.27765008402858 4.999999999999994
  endloop
endfacet
facet normal -0.09505197244395898 0.9954723112847051 -0.0
  outer loop
    vertex 25.997976690268167 20.476158436446426 4.999999999999994
    vertex 23.919013326228384 20.27765008402858 19.999999999999996
    vertex 25.997976690268167 20.476158436446426 19.999999999999996
  endloop
endfacet
facet normal -0.34946034805604487 0.9369511540825103 -0.0
  outer loop
    vertex 25.997976690268167 20.476158436446426 19.999999999999996
    vertex 27.95472335328533 21.205978093464815 4.999999999999994
    vertex 25.997976690268167 20.476158436446426 4.999999999999994
  endloop
endfacet
facet normal -0.34946034805604487 0.9369511540825103 -0.0
  outer loop
    vertex 27.95472335328533 21.205978093464815 4.999999999999994
    vertex 25.997976690268167 20.476158436446426 19.999999999999996
    vertex 27.95472335328533 21.205978093464815 19.999999999999996
  endloop
endfacet
facet normal -0.5800535784586403 0.8145783241145852 -0.0
  outer loop
    vertex 27.95472335328533 21.205978093464815 19.999999999999996
    vertex 29.655904263872017 22.417373051541954 4.999999999999994
    vertex 27.95472335328533 21.205978093464815 4.999999999999994
  endloop
endfacet
facet normal -0.5800535784586403 0.8145783241145852 -0.0
  outer loop
    vertex 29.655904263872017 22.417373051541954 4.999999999999994
    vertex 27.95472335328533 21.205978093464815 19.999999999999996
    vertex 29.655904263872017 22.417373051541954 19.999999999999996
  endloop
endfacet
facet normal -0.7711171160731414 0.6366933275125802 -0.0
  outer loop
    vertex 30.985586754306116 24.027788746209705 19.999999999999996
    vertex 29.655904263872017 22.417373051541954 4.999999999999994
    vertex 29.655904263872017 22.417373051541954 19.999999999999996
  endloop
endfacet
facet normal -0.7711171160731414 0.6366933275125802 -0.0
  outer loop
    vertex 29.655904263872017 22.417373051541954 4.999999999999994
    vertex 30.985586754306116 24.027788746209705 19.999999999999996
    vertex 30.985586754306116 24.027788746209705 4.999999999999994
  endloop
endfacet
facet normal -0.909630296558544 0.4154187328260672 -0.0
  outer loop
    vertex 31.853155160268763 25.927478009214234 19.999999999999996
    vertex 30.985586754306116 24.027788746209705 4.999999999999994
    vertex 30.985586754306116 24.027788746209705 19.999999999999996
  endloop
endfacet
facet normal -0.909630296558544 0.4154187328260672 -0.0
  outer loop
    vertex 30.985586754306116 24.027788746209705 4.999999999999994
    vertex 31.853155160268763 25.927478009214234 19.999999999999996
    vertex 31.853155160268763 25.927478009214234 4.999999999999994
  endloop
endfacet
facet normal -0.9861536755686244 0.16583403800936777 -0.0
  outer loop
    vertex 32.199486128618176 27.986980156666725 19.999999999999996
    vertex 31.853155160268763 25.927478009214234 4.999999999999994
    vertex 31.853155160268763 25.927478009214234 19.999999999999996
  endloop
endfacet
facet normal -0.9861536755686244 0.16583403800936777 -0.0
  outer loop
    vertex 31.853155160268763 25.927478009214234 4.999999999999994
    vertex 32.199486128618176 27.986980156666725 19.999999999999996
    vertex 32.199486128618176 27.986980156666725 4.999999999999994
  endloop
endfacet
facet normal -0.9954723112847053 -0.09505197244395837 3.0374913630322234e-19
  outer loop
    vertex 32.17221854799613 28.272551521542546 19.999999999999996
    vertex 32.199486128618176 27.986980156666725 4.999999999999994
    vertex 32.199486128618176 27.986980156666725 19.999999999999996
  endloop
endfacet
facet normal -0.9954723112847053 -0.09505197244395837 3.0374913630322234e-19
  outer loop
    vertex 32.199486128618176 27.986980156666725 4.999999999999994
    vertex 32.17221854799613 28.272551521542546 19.999999999999996
    vertex 32.17221854799613 28.272551521542546 4.999999999999994
  endloop
endfacet
facet normal -0.9954723112847053 -0.09505197244395837 3.0374913630322234e-19
  outer loop
    vertex 32.17221854799613 28.272551521542546 4.999999999999994
    vertex 32.17221854799613 28.272551521542546 19.999999999999996
    vertex 32.00097777620033 30.065943520706508 19.999999999999996
  endloop
endfacet
facet normal -0.9954723112847053 -0.09505197244395837 3.0374913630322234e-19
  outer loop
    vertex 32.17221854799613 28.272551521542546 4.999999999999994
    vertex 32.00097777620033 30.065943520706508 19.999999999999996
    vertex 32.00097777620033 30.065943520706508 4.999999999999992
  endloop
endfacet
facet normal -1.1360509961233058e-17 1.0542540912487157e-16 1.0
  outer loop
    vertex 21.859511178775897 20.62398105237799 4.999999999999994
    vertex 22.272733038526066 27.754913431337503 4.999999999999994
    vertex 22.204584691104206 28.272551521542546 4.999999999999994
  endloop
endfacet
facet normal -1.1360509961233058e-17 1.0542540912487157e-16 1.0
  outer loop
    vertex 22.272733038526066 27.754913431337503 4.999999999999994
    vertex 21.859511178775897 20.62398105237799 4.999999999999994
    vertex 23.919013326228384 20.27765008402858 4.999999999999994
  endloop
endfacet
facet normal -1.1360509961233058e-17 1.0542540912487157e-16 1.0
  outer loop
    vertex 22.272733038526066 27.754913431337503 4.999999999999994
    vertex 23.919013326228384 20.27765008402858 4.999999999999994
    vertex 22.472533883535327 27.272551521542542 4.999999999999994
  endloop
endfacet
facet normal -1.1360509961233058e-17 1.0542540912487157e-16 1.0
  outer loop
    vertex 22.472533883535327 27.272551521542542 4.999999999999994
    vertex 23.919013326228384 20.27765008402858 4.999999999999994
    vertex 22.79037112873111 26.85833795916945 4.999999999999994
  endloop
endfacet
facet normal -1.1360509961233058e-17 1.0542540912487157e-16 1.0
  outer loop
    vertex 22.79037112873111 26.85833795916945 4.999999999999994
    vertex 23.919013326228384 20.27765008402858 4.999999999999994
    vertex 23.204584691104206 26.540500713973668 4.999999999999994
  endloop
endfacet
facet normal -1.1360509961233058e-17 1.0542540912487157e-16 1.0
  outer loop
    vertex 23.204584691104206 26.540500713973668 4.999999999999994
    vertex 23.919013326228384 20.27765008402858 4.999999999999994
    vertex 23.686946600899166 26.34069986896441 4.999999999999994
  endloop
endfacet
facet normal -1.1360509961233058e-17 1.0542540912487157e-16 1.0
  outer loop
    vertex 23.686946600899166 26.34069986896441 4.999999999999994
    vertex 23.919013326228384 20.27765008402858 4.999999999999994
    vertex 24.204584691104206 26.272551521542546 4.999999999999994
  endloop
endfacet
facet normal -1.1360509961233058e-17 1.0542540912487157e-16 1.0
  outer loop
    vertex 24.204584691104206 26.272551521542546 4.999999999999994
    vertex 23.919013326228384 20.27765008402858 4.999999999999994
    vertex 25.997976690268167 20.476158436446426 4.999999999999994
  endloop
endfacet
facet normal -1.1360509961233058e-17 1.0542540912487157e-16 1.0
  outer loop
    vertex 24.204584691104206 26.272551521542546 4.999999999999994
    vertex 25.997976690268167 20.476158436446426 4.999999999999994
    vertex 24.72222278130925 26.34069986896441 4.999999999999994
  endloop
endfacet
facet normal -1.1360509961233058e-17 1.0542540912487157e-16 1.0
  outer loop
    vertex 24.72222278130925 26.34069986896441 4.999999999999994
    vertex 25.997976690268167 20.476158436446426 4.999999999999994
    vertex 25.204584691104206 26.540500713973668 4.999999999999994
  endloop
endfacet
facet normal -1.1360509961233058e-17 1.0542540912487157e-16 1.0
  outer loop
    vertex 25.204584691104206 26.540500713973668 4.999999999999994
    vertex 25.997976690268167 20.476158436446426 4.999999999999994
    vertex 25.618798253477305 26.85833795916945 4.999999999999994
  endloop
endfacet
facet normal -1.1360509961233058e-17 1.0542540912487157e-16 1.0
  outer loop
    vertex 25.618798253477305 26.85833795916945 4.999999999999994
    vertex 25.997976690268167 20.476158436446426 4.999999999999994
    vertex 25.936635498673084 27.27255152154255 4.999999999999994
  endloop
endfacet
facet normal -1.1360509961233058e-17 1.0542540912487157e-16 1.0
  outer loop
    vertex 25.936635498673084 27.27255152154255 4.999999999999994
    vertex 25.997976690268167 20.476158436446426 4.999999999999994
    vertex 26.136436343682345 27.754913431337506 4.999999999999994
  endloop
endfacet
facet normal -1.1360509961233058e-17 1.0542540912487157e-16 1.0
  outer loop
    vertex 26.136436343682345 27.754913431337506 4.999999999999994
    vertex 25.997976690268167 20.476158436446426 4.999999999999994
    vertex 27.95472335328533 21.205978093464815 4.999999999999994
  endloop
endfacet
facet normal -1.1360509961233058e-17 1.0542540912487157e-16 1.0
  outer loop
    vertex 26.136436343682345 27.754913431337506 4.999999999999994
    vertex 27.95472335328533 21.205978093464815 4.999999999999994
    vertex 26.20458469110421 28.272551521542546 4.999999999999994
  endloop
endfacet
facet normal -1.1360509961233058e-17 1.0542540912487157e-16 1.0
  outer loop
    vertex 26.20458469110421 28.272551521542546 4.999999999999994
    vertex 27.95472335328533 21.205978093464815 4.999999999999994
    vertex 26.549658203432518 35.9211219907071 4.999999999999992
  endloop
endfacet
facet normal -1.1360509961233058e-17 1.0542540912487157e-16 1.0
  outer loop
    vertex 26.549658203432518 35.9211219907071 4.999999999999992
    vertex 27.95472335328533 21.205978093464815 4.999999999999994
    vertex 28.449347466437047 35.053553584744456 4.999999999999992
  endloop
endfacet
facet normal -1.1360509961233058e-17 1.0542540912487157e-16 1.0
  outer loop
    vertex 28.449347466437047 35.053553584744456 4.999999999999992
    vertex 27.95472335328533 21.205978093464815 4.999999999999994
    vertex 29.655904263872017 22.417373051541954 4.999999999999994
  endloop
endfacet
facet normal -1.1360509961233058e-17 1.0542540912487157e-16 1.0
  outer loop
    vertex 28.449347466437047 35.053553584744456 4.999999999999992
    vertex 29.655904263872017 22.417373051541954 4.999999999999994
    vertex 30.0597631611048 33.72387109431036 4.999999999999992
  endloop
endfacet
facet normal -1.1360509961233058e-17 1.0542540912487157e-16 1.0
  outer loop
    vertex 30.0597631611048 33.72387109431036 4.999999999999992
    vertex 29.655904263872017 22.417373051541954 4.999999999999994
    vertex 30.985586754306116 24.027788746209705 4.999999999999994
  endloop
endfacet
facet normal -1.1360509961233058e-17 1.0542540912487157e-16 1.0
  outer loop
    vertex 30.0597631611048 33.72387109431036 4.999999999999992
    vertex 30.985586754306116 24.027788746209705 4.999999999999994
    vertex 31.27115811918194 32.022690183723675 4.999999999999992
  endloop
endfacet
facet normal -1.1360509961233058e-17 1.0542540912487157e-16 1.0
  outer loop
    vertex 31.27115811918194 32.022690183723675 4.999999999999992
    vertex 30.985586754306116 24.027788746209705 4.999999999999994
    vertex 31.853155160268763 25.927478009214234 4.999999999999994
  endloop
endfacet
facet normal -1.1360509961233058e-17 1.0542540912487157e-16 1.0
  outer loop
    vertex 31.27115811918194 32.022690183723675 4.999999999999992
    vertex 31.853155160268763 25.927478009214234 4.999999999999994
    vertex 32.00097777620033 30.065943520706508 4.999999999999992
  endloop
endfacet
facet normal -1.1360509961233058e-17 1.0542540912487157e-16 1.0
  outer loop
    vertex 32.00097777620033 30.065943520706508 4.999999999999992
    vertex 31.853155160268763 25.927478009214234 4.999999999999994
    vertex 32.17221854799613 28.272551521542546 4.999999999999994
  endloop
endfacet
facet normal -1.1360509961233058e-17 1.0542540912487157e-16 1.0
  outer loop
    vertex 32.17221854799613 28.272551521542546 4.999999999999994
    vertex 31.853155160268763 25.927478009214234 4.999999999999994
    vertex 32.199486128618176 27.986980156666725 4.999999999999994
  endloop
endfacet
facet normal -1.1360509961233058e-17 1.0542540912487157e-16 1.0
  outer loop
    vertex 16.236950834212273 28.272551521542546 4.999999999999994
    vertex 16.556014221939648 30.617625033870855 4.999999999999992
    vertex 16.20968325359024 28.558122886418364 4.999999999999992
  endloop
endfacet
facet normal -1.1360509961233058e-17 1.0542540912487157e-16 1.0
  outer loop
    vertex 16.556014221939648 30.617625033870855 4.999999999999992
    vertex 16.236950834212273 28.272551521542546 4.999999999999994
    vertex 16.40819160600808 26.479159522378584 4.999999999999994
  endloop
endfacet
facet normal -1.1360509961233058e-17 1.0542540912487157e-16 1.0
  outer loop
    vertex 16.556014221939648 30.617625033870855 4.999999999999992
    vertex 16.40819160600808 26.479159522378584 4.999999999999994
    vertex 17.138011263026474 24.522412859361417 4.999999999999994
  endloop
endfacet
facet normal -1.1360509961233058e-17 1.0542540912487157e-16 1.0
  outer loop
    vertex 16.556014221939648 30.617625033870855 4.999999999999992
    vertex 17.138011263026474 24.522412859361417 4.999999999999994
    vertex 17.423582627902295 32.51731429687539 4.999999999999992
  endloop
endfacet
facet normal -1.1360509961233058e-17 1.0542540912487157e-16 1.0
  outer loop
    vertex 17.423582627902295 32.51731429687539 4.999999999999992
    vertex 17.138011263026474 24.522412859361417 4.999999999999994
    vertex 18.349406221103614 22.821231948774734 4.999999999999994
  endloop
endfacet
facet normal -1.1360509961233058e-17 1.0542540912487157e-16 1.0
  outer loop
    vertex 17.423582627902295 32.51731429687539 4.999999999999992
    vertex 18.349406221103614 22.821231948774734 4.999999999999994
    vertex 18.75326511833639 34.12772999154314 4.999999999999992
  endloop
endfacet
facet normal -1.1360509961233058e-17 1.0542540912487157e-16 1.0
  outer loop
    vertex 18.75326511833639 34.12772999154314 4.999999999999992
    vertex 18.349406221103614 22.821231948774734 4.999999999999994
    vertex 19.959821915771368 21.491549458340632 4.999999999999994
  endloop
endfacet
facet normal -1.1360509961233058e-17 1.0542540912487157e-16 1.0
  outer loop
    vertex 18.75326511833639 34.12772999154314 4.999999999999992
    vertex 19.959821915771368 21.491549458340632 4.999999999999994
    vertex 20.454446028923073 35.33912494962028 4.999999999999992
  endloop
endfacet
facet normal -1.1360509961233058e-17 1.0542540912487157e-16 1.0
  outer loop
    vertex 20.454446028923073 35.33912494962028 4.999999999999992
    vertex 19.959821915771368 21.491549458340632 4.999999999999994
    vertex 21.859511178775897 20.62398105237799 4.999999999999994
  endloop
endfacet
facet normal -1.1360509961233058e-17 1.0542540912487157e-16 1.0
  outer loop
    vertex 20.454446028923073 35.33912494962028 4.999999999999992
    vertex 21.859511178775897 20.62398105237799 4.999999999999994
    vertex 22.411192691940247 36.068944606638674 4.999999999999992
  endloop
endfacet
facet normal -1.1360509961233058e-17 1.0542540912487157e-16 1.0
  outer loop
    vertex 22.411192691940247 36.068944606638674 4.999999999999992
    vertex 21.859511178775897 20.62398105237799 4.999999999999994
    vertex 22.204584691104206 28.272551521542546 4.999999999999994
  endloop
endfacet
facet normal -1.1360509961233058e-17 1.0542540912487157e-16 1.0
  outer loop
    vertex 22.411192691940247 36.068944606638674 4.999999999999992
    vertex 22.204584691104206 28.272551521542546 4.999999999999994
    vertex 22.272733038526066 28.790189611747586 4.999999999999994
  endloop
endfacet
facet normal -1.1360509961233058e-17 1.0542540912487157e-16 1.0
  outer loop
    vertex 22.411192691940247 36.068944606638674 4.999999999999992
    vertex 22.272733038526066 28.790189611747586 4.999999999999994
    vertex 22.472533883535327 29.272551521542546 4.999999999999994
  endloop
endfacet
facet normal -1.1360509961233058e-17 1.0542540912487157e-16 1.0
  outer loop
    vertex 22.411192691940247 36.068944606638674 4.999999999999992
    vertex 22.472533883535327 29.272551521542546 4.999999999999994
    vertex 24.49015605598003 36.26745295905651 4.999999999999992
  endloop
endfacet
facet normal -1.1360509961233058e-17 1.0542540912487157e-16 1.0
  outer loop
    vertex 24.49015605598003 36.26745295905651 4.999999999999992
    vertex 22.472533883535327 29.272551521542546 4.999999999999994
    vertex 22.79037112873111 29.686765083915645 4.999999999999994
  endloop
endfacet
facet normal -1.1360509961233058e-17 1.0542540912487157e-16 1.0
  outer loop
    vertex 24.49015605598003 36.26745295905651 4.999999999999992
    vertex 22.79037112873111 29.686765083915645 4.999999999999994
    vertex 23.204584691104206 30.004602329111425 4.999999999999994
  endloop
endfacet
facet normal -1.1360509961233058e-17 1.0542540912487157e-16 1.0
  outer loop
    vertex 24.49015605598003 36.26745295905651 4.999999999999992
    vertex 23.204584691104206 30.004602329111425 4.999999999999994
    vertex 23.686946600899162 30.204403174120685 4.999999999999994
  endloop
endfacet
facet normal -1.1360509961233058e-17 1.0542540912487157e-16 1.0
  outer loop
    vertex 24.49015605598003 36.26745295905651 4.999999999999992
    vertex 23.686946600899162 30.204403174120685 4.999999999999994
    vertex 24.204584691104206 30.27255152154255 4.999999999999994
  endloop
endfacet
facet normal -1.1360509961233058e-17 1.0542540912487157e-16 1.0
  outer loop
    vertex 24.49015605598003 36.26745295905651 4.999999999999992
    vertex 24.204584691104206 30.27255152154255 4.999999999999994
    vertex 24.72222278130925 30.204403174120685 4.999999999999994
  endloop
endfacet
facet normal -1.1360509961233058e-17 1.0542540912487157e-16 1.0
  outer loop
    vertex 24.49015605598003 36.26745295905651 4.999999999999992
    vertex 24.72222278130925 30.204403174120685 4.999999999999994
    vertex 26.549658203432518 35.9211219907071 4.999999999999992
  endloop
endfacet
facet normal -1.1360509961233058e-17 1.0542540912487157e-16 1.0
  outer loop
    vertex 26.549658203432518 35.9211219907071 4.999999999999992
    vertex 24.72222278130925 30.204403174120685 4.999999999999994
    vertex 25.204584691104206 30.004602329111425 4.999999999999994
  endloop
endfacet
facet normal -1.1360509961233058e-17 1.0542540912487157e-16 1.0
  outer loop
    vertex 26.549658203432518 35.9211219907071 4.999999999999992
    vertex 25.204584691104206 30.004602329111425 4.999999999999994
    vertex 25.618798253477305 29.686765083915645 4.999999999999994
  endloop
endfacet
facet normal -1.1360509961233058e-17 1.0542540912487157e-16 1.0
  outer loop
    vertex 26.549658203432518 35.9211219907071 4.999999999999992
    vertex 25.618798253477305 29.686765083915645 4.999999999999994
    vertex 25.936635498673084 29.27255152154255 4.999999999999994
  endloop
endfacet
facet normal -1.1360509961233058e-17 1.0542540912487157e-16 1.0
  outer loop
    vertex 26.549658203432518 35.9211219907071 4.999999999999992
    vertex 25.936635498673084 29.27255152154255 4.999999999999994
    vertex 26.136436343682345 28.790189611747586 4.999999999999994
  endloop
endfacet
facet normal -1.1360509961233058e-17 1.0542540912487157e-16 1.0
  outer loop
    vertex 26.549658203432518 35.9211219907071 4.999999999999992
    vertex 26.136436343682345 28.790189611747586 4.999999999999994
    vertex 26.20458469110421 28.272551521542546 4.999999999999994
  endloop
endfacet
facet normal -0.9369511540825103 -0.34946034805604487 -0.0
  outer loop
    vertex 31.27115811918194 32.022690183723675 19.999999999999996
    vertex 32.00097777620033 30.065943520706508 4.999999999999992
    vertex 32.00097777620033 30.065943520706508 19.999999999999996
  endloop
endfacet
facet normal -0.9369511540825103 -0.34946034805604487 -0.0
  outer loop
    vertex 32.00097777620033 30.065943520706508 4.999999999999992
    vertex 31.27115811918194 32.022690183723675 19.999999999999996
    vertex 31.27115811918194 32.022690183723675 4.999999999999992
  endloop
endfacet
facet normal -0.8145783241145858 -0.5800535784586394 -0.0
  outer loop
    vertex 30.0597631611048 33.72387109431036 19.999999999999996
    vertex 31.27115811918194 32.022690183723675 4.999999999999992
    vertex 31.27115811918194 32.022690183723675 19.999999999999996
  endloop
endfacet
facet normal -0.8145783241145858 -0.5800535784586394 -0.0
  outer loop
    vertex 31.27115811918194 32.022690183723675 4.999999999999992
    vertex 30.0597631611048 33.72387109431036 19.999999999999996
    vertex 30.0597631611048 33.72387109431036 4.999999999999992
  endloop
endfacet
facet normal -0.6366933275125796 -0.7711171160731417 -0.0
  outer loop
    vertex 30.0597631611048 33.72387109431036 19.999999999999996
    vertex 28.449347466437047 35.053553584744456 4.999999999999992
    vertex 30.0597631611048 33.72387109431036 4.999999999999992
  endloop
endfacet
facet normal -0.6366933275125796 -0.7711171160731417 -0.0
  outer loop
    vertex 28.449347466437047 35.053553584744456 4.999999999999992
    vertex 30.0597631611048 33.72387109431036 19.999999999999996
    vertex 28.449347466437047 35.053553584744456 19.999999999999996
  endloop
endfacet
facet normal -0.41541873282606495 -0.9096302965585449 -0.0
  outer loop
    vertex 28.449347466437047 35.053553584744456 19.999999999999996
    vertex 26.549658203432518 35.9211219907071 4.999999999999992
    vertex 28.449347466437047 35.053553584744456 4.999999999999992
  endloop
endfacet
facet normal -0.41541873282606495 -0.9096302965585449 -0.0
  outer loop
    vertex 26.549658203432518 35.9211219907071 4.999999999999992
    vertex 28.449347466437047 35.053553584744456 19.999999999999996
    vertex 26.549658203432518 35.9211219907071 19.999999999999996
  endloop
endfacet
facet normal -0.1658340380093704 -0.9861536755686239 -0.0
  outer loop
    vertex 26.549658203432518 35.9211219907071 19.999999999999996
    vertex 24.49015605598003 36.26745295905651 4.999999999999992
    vertex 26.549658203432518 35.9211219907071 4.999999999999992
  endloop
endfacet
facet normal -0.1658340380093704 -0.9861536755686239 -0.0
  outer loop
    vertex 24.49015605598003 36.26745295905651 4.999999999999992
    vertex 26.549658203432518 35.9211219907071 19.999999999999996
    vertex 24.49015605598003 36.26745295905651 19.999999999999996
  endloop
endfacet
facet normal 0.09505197244395898 -0.9954723112847051 -0.0
  outer loop
    vertex 24.49015605598003 36.26745295905651 19.999999999999996
    vertex 22.411192691940247 36.068944606638674 4.999999999999992
    vertex 24.49015605598003 36.26745295905651 4.999999999999992
  endloop
endfacet
facet normal 0.09505197244395898 -0.9954723112847051 -0.0
  outer loop
    vertex 22.411192691940247 36.068944606638674 4.999999999999992
    vertex 24.49015605598003 36.26745295905651 19.999999999999996
    vertex 22.411192691940247 36.068944606638674 19.999999999999996
  endloop
endfacet
facet normal 0.3494603480560436 -0.936951154082511 -0.0
  outer loop
    vertex 22.411192691940247 36.068944606638674 19.999999999999996
    vertex 20.454446028923073 35.33912494962028 4.999999999999992
    vertex 22.411192691940247 36.068944606638674 4.999999999999992
  endloop
endfacet
facet normal 0.3494603480560436 -0.936951154082511 -0.0
  outer loop
    vertex 20.454446028923073 35.33912494962028 4.999999999999992
    vertex 22.411192691940247 36.068944606638674 19.999999999999996
    vertex 20.454446028923073 35.33912494962028 19.999999999999996
  endloop
endfacet
facet normal 0.5800535784586418 -0.8145783241145841 -0.0
  outer loop
    vertex 20.454446028923073 35.33912494962028 19.999999999999996
    vertex 18.75326511833639 34.12772999154314 4.999999999999992
    vertex 20.454446028923073 35.33912494962028 4.999999999999992
  endloop
endfacet
facet normal 0.5800535784586418 -0.8145783241145841 -0.0
  outer loop
    vertex 18.75326511833639 34.12772999154314 4.999999999999992
    vertex 20.454446028923073 35.33912494962028 19.999999999999996
    vertex 18.75326511833639 34.12772999154314 19.999999999999996
  endloop
endfacet
facet normal 0.7711171160731413 -0.63669332751258 -0.0
  outer loop
    vertex 18.75326511833639 34.12772999154314 4.999999999999992
    vertex 17.423582627902295 32.51731429687539 19.999999999999996
    vertex 17.423582627902295 32.51731429687539 4.999999999999992
  endloop
endfacet
facet normal 0.7711171160731413 -0.63669332751258 -0.0
  outer loop
    vertex 17.423582627902295 32.51731429687539 19.999999999999996
    vertex 18.75326511833639 34.12772999154314 4.999999999999992
    vertex 18.75326511833639 34.12772999154314 19.999999999999996
  endloop
endfacet
facet normal 0.9096302965585445 -0.41541873282606623 -0.0
  outer loop
    vertex 17.423582627902295 32.51731429687539 4.999999999999992
    vertex 16.556014221939648 30.617625033870855 19.999999999999996
    vertex 16.556014221939648 30.617625033870855 4.999999999999992
  endloop
endfacet
facet normal 0.9096302965585445 -0.41541873282606623 -0.0
  outer loop
    vertex 16.556014221939648 30.617625033870855 19.999999999999996
    vertex 17.423582627902295 32.51731429687539 4.999999999999992
    vertex 17.423582627902295 32.51731429687539 19.999999999999996
  endloop
endfacet
facet normal 0.9861536755686244 -0.16583403800936777 -0.0
  outer loop
    vertex 16.556014221939648 30.617625033870855 4.999999999999992
    vertex 16.20968325359024 28.558122886418364 19.999999999999996
    vertex 16.20968325359024 28.558122886418364 4.999999999999992
  endloop
endfacet
facet normal 0.9861536755686244 -0.16583403800936777 -0.0
  outer loop
    vertex 16.20968325359024 28.558122886418364 19.999999999999996
    vertex 16.556014221939648 30.617625033870855 4.999999999999992
    vertex 16.556014221939648 30.617625033870855 19.999999999999996
  endloop
endfacet
facet normal -0.9914448613738105 -0.13052619222005213 0.0
  outer loop
    vertex 26.136436343682345 28.790189611747586 4.999999999999994
    vertex 26.20458469110421 28.272551521542546 1.4099832412739487e-15
    vertex 26.20458469110421 28.272551521542546 4.999999999999994
  endloop
endfacet
facet normal -0.9914448613738105 -0.13052619222005213 0.0
  outer loop
    vertex 26.20458469110421 28.272551521542546 1.4099832412739487e-15
    vertex 26.136436343682345 28.790189611747586 4.999999999999994
    vertex 26.136436343682345 28.790189611747586 1.4099832412739487e-15
  endloop
endfacet
facet normal -0.9238795325112878 -0.38268343236508756 -0.0
  outer loop
    vertex 25.936635498673084 29.27255152154255 4.999999999999994
    vertex 26.136436343682345 28.790189611747586 1.4099832412739487e-15
    vertex 26.136436343682345 28.790189611747586 4.999999999999994
  endloop
endfacet
facet normal -0.9238795325112878 -0.38268343236508756 -0.0
  outer loop
    vertex 26.136436343682345 28.790189611747586 1.4099832412739487e-15
    vertex 25.936635498673084 29.27255152154255 4.999999999999994
    vertex 25.936635498673084 29.27255152154255 1.4099832412739487e-15
  endloop
endfacet
facet normal -0.7933533402912374 -0.608761429008718 -0.0
  outer loop
    vertex 25.618798253477305 29.686765083915645 4.999999999999994
    vertex 25.936635498673084 29.27255152154255 1.4099832412739487e-15
    vertex 25.936635498673084 29.27255152154255 4.999999999999994
  endloop
endfacet
facet normal -0.7933533402912374 -0.608761429008718 -0.0
  outer loop
    vertex 25.936635498673084 29.27255152154255 1.4099832412739487e-15
    vertex 25.618798253477305 29.686765083915645 4.999999999999994
    vertex 25.618798253477305 29.686765083915645 1.4099832412739487e-15
  endloop
endfacet
facet normal -0.6087614290087153 -0.7933533402912393 -0.0
  outer loop
    vertex 25.618798253477305 29.686765083915645 4.999999999999994
    vertex 25.204584691104206 30.004602329111425 1.4099832412739487e-15
    vertex 25.618798253477305 29.686765083915645 1.4099832412739487e-15
  endloop
endfacet
facet normal -0.6087614290087153 -0.7933533402912393 -0.0
  outer loop
    vertex 25.204584691104206 30.004602329111425 1.4099832412739487e-15
    vertex 25.618798253477305 29.686765083915645 4.999999999999994
    vertex 25.204584691104206 30.004602329111425 4.999999999999994
  endloop
endfacet
facet normal -0.3826834323650913 -0.9238795325112861 -0.0
  outer loop
    vertex 25.204584691104206 30.004602329111425 4.999999999999994
    vertex 24.72222278130925 30.204403174120685 1.4099832412739487e-15
    vertex 25.204584691104206 30.004602329111425 1.4099832412739487e-15
  endloop
endfacet
facet normal -0.3826834323650913 -0.9238795325112861 -0.0
  outer loop
    vertex 24.72222278130925 30.204403174120685 1.4099832412739487e-15
    vertex 25.204584691104206 30.004602329111425 4.999999999999994
    vertex 24.72222278130925 30.204403174120685 4.999999999999994
  endloop
endfacet
facet normal -0.13052619222005143 -0.9914448613738105 -0.0
  outer loop
    vertex 24.72222278130925 30.204403174120685 4.999999999999994
    vertex 24.204584691104206 30.27255152154255 1.4099832412739487e-15
    vertex 24.72222278130925 30.204403174120685 1.4099832412739487e-15
  endloop
endfacet
facet normal -0.13052619222005143 -0.9914448613738105 -0.0
  outer loop
    vertex 24.204584691104206 30.27255152154255 1.4099832412739487e-15
    vertex 24.72222278130925 30.204403174120685 4.999999999999994
    vertex 24.204584691104206 30.27255152154255 4.999999999999994
  endloop
endfacet
facet normal 0.13052619222005143 -0.9914448613738105 -0.0
  outer loop
    vertex 24.204584691104206 30.27255152154255 4.999999999999994
    vertex 23.686946600899162 30.204403174120685 1.4099832412739487e-15
    vertex 24.204584691104206 30.27255152154255 1.4099832412739487e-15
  endloop
endfacet
facet normal 0.13052619222005143 -0.9914448613738105 -0.0
  outer loop
    vertex 23.686946600899162 30.204403174120685 1.4099832412739487e-15
    vertex 24.204584691104206 30.27255152154255 4.999999999999994
    vertex 23.686946600899162 30.204403174120685 4.999999999999994
  endloop
endfacet
facet normal 0.3826834323650913 -0.9238795325112861 -0.0
  outer loop
    vertex 23.686946600899162 30.204403174120685 4.999999999999994
    vertex 23.204584691104206 30.004602329111425 1.4099832412739487e-15
    vertex 23.686946600899162 30.204403174120685 1.4099832412739487e-15
  endloop
endfacet
facet normal 0.3826834323650913 -0.9238795325112861 -0.0
  outer loop
    vertex 23.204584691104206 30.004602329111425 1.4099832412739487e-15
    vertex 23.686946600899162 30.204403174120685 4.999999999999994
    vertex 23.204584691104206 30.004602329111425 4.999999999999994
  endloop
endfacet
facet normal 0.608761429008718 -0.7933533402912374 -0.0
  outer loop
    vertex 23.204584691104206 30.004602329111425 4.999999999999994
    vertex 22.79037112873111 29.686765083915645 1.4099832412739487e-15
    vertex 23.204584691104206 30.004602329111425 1.4099832412739487e-15
  endloop
endfacet
facet normal 0.608761429008718 -0.7933533402912374 -0.0
  outer loop
    vertex 22.79037112873111 29.686765083915645 1.4099832412739487e-15
    vertex 23.204584691104206 30.004602329111425 4.999999999999994
    vertex 22.79037112873111 29.686765083915645 4.999999999999994
  endloop
endfacet
facet normal 0.7933533402912386 -0.6087614290087161 -0.0
  outer loop
    vertex 22.79037112873111 29.686765083915645 1.4099832412739487e-15
    vertex 22.472533883535327 29.272551521542546 4.999999999999994
    vertex 22.472533883535327 29.272551521542546 1.4099832412739487e-15
  endloop
endfacet
facet normal 0.7933533402912386 -0.6087614290087161 -0.0
  outer loop
    vertex 22.472533883535327 29.272551521542546 4.999999999999994
    vertex 22.79037112873111 29.686765083915645 1.4099832412739487e-15
    vertex 22.79037112873111 29.686765083915645 4.999999999999994
  endloop
endfacet
facet normal 0.9238795325112861 -0.3826834323650913 -0.0
  outer loop
    vertex 22.472533883535327 29.272551521542546 1.4099832412739487e-15
    vertex 22.272733038526066 28.790189611747586 4.999999999999994
    vertex 22.272733038526066 28.790189611747586 1.4099832412739487e-15
  endloop
endfacet
facet normal 0.9238795325112861 -0.3826834323650913 -0.0
  outer loop
    vertex 22.272733038526066 28.790189611747586 4.999999999999994
    vertex 22.472533883535327 29.272551521542546 1.4099832412739487e-15
    vertex 22.472533883535327 29.272551521542546 4.999999999999994
  endloop
endfacet
facet normal 0.9238795325112861 0.3826834323650913 0.0
  outer loop
    vertex 22.272733038526066 27.754913431337503 1.762479051592436e-15
    vertex 22.472533883535327 27.272551521542542 4.999999999999994
    vertex 22.472533883535327 27.272551521542542 1.762479051592436e-15
  endloop
endfacet
facet normal 0.9238795325112861 0.3826834323650913 0.0
  outer loop
    vertex 22.472533883535327 27.272551521542542 4.999999999999994
    vertex 22.272733038526066 27.754913431337503 1.762479051592436e-15
    vertex 22.272733038526066 27.754913431337503 4.999999999999994
  endloop
endfacet
facet normal 0.7933533402912347 0.6087614290087213 0.0
  outer loop
    vertex 22.472533883535327 27.272551521542542 1.762479051592436e-15
    vertex 22.79037112873111 26.85833795916945 4.999999999999994
    vertex 22.79037112873111 26.85833795916945 1.762479051592436e-15
  endloop
endfacet
facet normal 0.7933533402912347 0.6087614290087213 0.0
  outer loop
    vertex 22.79037112873111 26.85833795916945 4.999999999999994
    vertex 22.472533883535327 27.272551521542542 1.762479051592436e-15
    vertex 22.472533883535327 27.272551521542542 4.999999999999994
  endloop
endfacet
facet normal 0.608761429008718 0.7933533402912374 0.0
  outer loop
    vertex 22.79037112873111 26.85833795916945 4.999999999999994
    vertex 23.204584691104206 26.540500713973668 1.762479051592436e-15
    vertex 22.79037112873111 26.85833795916945 1.762479051592436e-15
  endloop
endfacet
facet normal 0.608761429008718 0.7933533402912374 0.0
  outer loop
    vertex 23.204584691104206 26.540500713973668 1.762479051592436e-15
    vertex 22.79037112873111 26.85833795916945 4.999999999999994
    vertex 23.204584691104206 26.540500713973668 4.999999999999994
  endloop
endfacet
facet normal 0.3826834323650894 0.923879532511287 0.0
  outer loop
    vertex 23.204584691104206 26.540500713973668 4.999999999999994
    vertex 23.686946600899166 26.34069986896441 1.762479051592436e-15
    vertex 23.204584691104206 26.540500713973668 1.762479051592436e-15
  endloop
endfacet
facet normal 0.3826834323650894 0.923879532511287 0.0
  outer loop
    vertex 23.686946600899166 26.34069986896441 1.762479051592436e-15
    vertex 23.204584691104206 26.540500713973668 4.999999999999994
    vertex 23.686946600899166 26.34069986896441 4.999999999999994
  endloop
endfacet
facet normal 0.13052619222005216 0.9914448613738104 0.0
  outer loop
    vertex 23.686946600899166 26.34069986896441 4.999999999999994
    vertex 24.204584691104206 26.272551521542546 1.762479051592436e-15
    vertex 23.686946600899166 26.34069986896441 1.762479051592436e-15
  endloop
endfacet
facet normal 0.13052619222005216 0.9914448613738104 0.0
  outer loop
    vertex 24.204584691104206 26.272551521542546 1.762479051592436e-15
    vertex 23.686946600899166 26.34069986896441 4.999999999999994
    vertex 24.204584691104206 26.272551521542546 4.999999999999994
  endloop
endfacet
facet normal -0.13052619222005143 0.9914448613738105 -0.0
  outer loop
    vertex 24.204584691104206 26.272551521542546 4.999999999999994
    vertex 24.72222278130925 26.34069986896441 1.762479051592436e-15
    vertex 24.204584691104206 26.272551521542546 1.762479051592436e-15
  endloop
endfacet
facet normal -0.13052619222005143 0.9914448613738105 -0.0
  outer loop
    vertex 24.72222278130925 26.34069986896441 1.762479051592436e-15
    vertex 24.204584691104206 26.272551521542546 4.999999999999994
    vertex 24.72222278130925 26.34069986896441 4.999999999999994
  endloop
endfacet
facet normal -0.3826834323650913 0.9238795325112861 -0.0
  outer loop
    vertex 24.72222278130925 26.34069986896441 4.999999999999994
    vertex 25.204584691104206 26.540500713973668 1.762479051592436e-15
    vertex 24.72222278130925 26.34069986896441 1.762479051592436e-15
  endloop
endfacet
facet normal -0.3826834323650913 0.9238795325112861 -0.0
  outer loop
    vertex 25.204584691104206 26.540500713973668 1.762479051592436e-15
    vertex 24.72222278130925 26.34069986896441 4.999999999999994
    vertex 25.204584691104206 26.540500713973668 4.999999999999994
  endloop
endfacet
facet normal -0.6087614290087153 0.7933533402912393 -0.0
  outer loop
    vertex 25.204584691104206 26.540500713973668 4.999999999999994
    vertex 25.618798253477305 26.85833795916945 1.762479051592436e-15
    vertex 25.204584691104206 26.540500713973668 1.762479051592436e-15
  endloop
endfacet
facet normal -0.6087614290087153 0.7933533402912393 -0.0
  outer loop
    vertex 25.618798253477305 26.85833795916945 1.762479051592436e-15
    vertex 25.204584691104206 26.540500713973668 4.999999999999994
    vertex 25.618798253477305 26.85833795916945 4.999999999999994
  endloop
endfacet
facet normal -0.7933533402912413 0.6087614290087128 -0.0
  outer loop
    vertex 25.936635498673084 27.27255152154255 4.999999999999994
    vertex 25.618798253477305 26.85833795916945 1.762479051592436e-15
    vertex 25.618798253477305 26.85833795916945 4.999999999999994
  endloop
endfacet
facet normal -0.7933533402912413 0.6087614290087128 -0.0
  outer loop
    vertex 25.618798253477305 26.85833795916945 1.762479051592436e-15
    vertex 25.936635498673084 27.27255152154255 4.999999999999994
    vertex 25.936635498673084 27.27255152154255 1.762479051592436e-15
  endloop
endfacet
facet normal -0.9238795325112861 0.3826834323650913 -0.0
  outer loop
    vertex 26.136436343682345 27.754913431337506 4.999999999999994
    vertex 25.936635498673084 27.27255152154255 1.762479051592436e-15
    vertex 25.936635498673084 27.27255152154255 4.999999999999994
  endloop
endfacet
facet normal -0.9238795325112861 0.3826834323650913 -0.0
  outer loop
    vertex 25.936635498673084 27.27255152154255 1.762479051592436e-15
    vertex 26.136436343682345 27.754913431337506 4.999999999999994
    vertex 26.136436343682345 27.754913431337506 1.762479051592436e-15
  endloop
endfacet
facet normal -0.9914448613738105 0.13052619222005213 -6.934996920953066e-19
  outer loop
    vertex 26.20458469110421 28.272551521542546 4.999999999999994
    vertex 26.136436343682345 27.754913431337506 1.762479051592436e-15
    vertex 26.136436343682345 27.754913431337506 4.999999999999994
  endloop
endfacet
facet normal -0.9914448613738105 0.13052619222005213 -6.934996920953066e-19
  outer loop
    vertex 26.136436343682345 27.754913431337506 1.762479051592436e-15
    vertex 26.20458469110421 28.272551521542546 4.999999999999994
    vertex 26.20458469110421 28.272551521542546 1.4099832412739487e-15
  endloop
endfacet
facet normal 0.0 -1.0 0.0
  outer loop
    vertex 34.2045846911042 3.2725515215425522 19.999999999999996
    vertex 14.204584691104218 3.2725515215425522 8.999999999999998
    vertex 34.2045846911042 3.2725515215425522 8.999999999999998
  endloop
endfacet
facet normal 0.0 -1.0 0.0
  outer loop
    vertex 14.204584691104218 3.2725515215425522 8.999999999999998
    vertex 34.2045846911042 3.2725515215425522 19.999999999999996
    vertex 14.204584691104207 3.2725515215425522 19.999999999999996
  endloop
endfacet
facet normal 0.9914448613738105 -0.13052619222005213 -0.0
  outer loop
    vertex 22.272733038526066 28.790189611747586 1.4099832412739487e-15
    vertex 22.204584691104206 28.272551521542546 4.999999999999994
    vertex 22.204584691104206 28.272551521542546 1.4099832412739487e-15
  endloop
endfacet
facet normal 0.9914448613738105 -0.13052619222005213 -0.0
  outer loop
    vertex 22.204584691104206 28.272551521542546 4.999999999999994
    vertex 22.272733038526066 28.790189611747586 1.4099832412739487e-15
    vertex 22.272733038526066 28.790189611747586 4.999999999999994
  endloop
endfacet
facet normal 0.9914448613738105 0.13052619222005077 3.6908040228185875e-20
  outer loop
    vertex 22.204584691104206 28.272551521542546 1.4099832412739487e-15
    vertex 22.272733038526066 27.754913431337503 4.999999999999994
    vertex 22.272733038526066 27.754913431337503 1.762479051592436e-15
  endloop
endfacet
facet normal 0.9914448613738105 0.13052619222005077 3.6908040228185875e-20
  outer loop
    vertex 22.272733038526066 27.754913431337503 4.999999999999994
    vertex 22.204584691104206 28.272551521542546 1.4099832412739487e-15
    vertex 22.204584691104206 28.272551521542546 4.999999999999994
  endloop
endfacet
facet normal 1.0 -0.0 -0.0
  outer loop
    vertex 34.2045846911042 28.272551521542546 0.0
    vertex 34.2045846911042 15.272551521542551 14.999999999999998
    vertex 34.2045846911042 15.272551521542551 -1.1749860343949574e-15
  endloop
endfacet
facet normal 1.0 -0.0 -0.0
  outer loop
    vertex 34.2045846911042 9.272551521542551 8.999999999999998
    vertex 34.2045846911042 3.2725515215425522 19.999999999999996
    vertex 34.2045846911042 3.2725515215425522 8.999999999999998
  endloop
endfacet
facet normal 1.0 -0.0 -0.0
  outer loop
    vertex 34.2045846911042 3.2725515215425522 19.999999999999996
    vertex 34.2045846911042 9.272551521542551 8.999999999999998
    vertex 34.2045846911042 9.272551521542551 14.999999999999998
  endloop
endfacet
facet normal 1.0 -0.0 -0.0
  outer loop
    vertex 34.2045846911042 3.2725515215425522 19.999999999999996
    vertex 34.2045846911042 9.272551521542551 14.999999999999998
    vertex 34.2045846911042 28.272551521542546 19.999999999999996
  endloop
endfacet
facet normal 1.0 -0.0 -0.0
  outer loop
    vertex 34.2045846911042 28.272551521542546 19.999999999999996
    vertex 34.2045846911042 9.272551521542551 14.999999999999998
    vertex 34.2045846911042 15.272551521542551 14.999999999999998
  endloop
endfacet
facet normal 1.0 -0.0 -0.0
  outer loop
    vertex 34.2045846911042 28.272551521542546 19.999999999999996
    vertex 34.2045846911042 15.272551521542551 14.999999999999998
    vertex 34.2045846911042 28.272551521542546 0.0
  endloop
endfacet
facet normal 0.9914448604823559 0.13052619899132178 -0.0
  outer loop
    vertex 33.863842918641765 30.86074210450741 0.0
    vertex 34.2045846911042 28.272551521542546 19.999999999999996
    vertex 34.2045846911042 28.272551521542546 0.0
  endloop
endfacet
facet normal 0.9914448604823559 0.13052619899132178 -0.0
  outer loop
    vertex 34.2045846911042 28.272551521542546 19.999999999999996
    vertex 33.863842918641765 30.86074210450741 0.0
    vertex 33.863842918641765 30.86074210450741 19.999999999999996
  endloop
endfacet
facet normal 0.0 1.0 0.0
  outer loop
    vertex 14.204584691104218 9.272551521542551 14.999999999999998
    vertex 34.2045846911042 9.272551521542551 8.999999999999998
    vertex 14.204584691104218 9.272551521542551 8.999999999999998
  endloop
endfacet
facet normal 0.0 1.0 0.0
  outer loop
    vertex 34.2045846911042 9.272551521542551 8.999999999999998
    vertex 14.204584691104218 9.272551521542551 14.999999999999998
    vertex 34.2045846911042 9.272551521542551 14.999999999999998
  endloop
endfacet
facet normal 0.0 0.0 -1.0
  outer loop
    vertex 34.2045846911042 9.272551521542551 8.999999999999998
    vertex 14.204584691104218 3.2725515215425522 8.999999999999998
    vertex 14.204584691104218 9.272551521542551 8.999999999999998
  endloop
endfacet
facet normal 0.0 0.0 -1.0
  outer loop
    vertex 14.204584691104218 3.2725515215425522 8.999999999999998
    vertex 34.2045846911042 9.272551521542551 8.999999999999998
    vertex 34.2045846911042 3.2725515215425522 8.999999999999998
  endloop
endfacet
facet normal 0.0 -1.0 0.0
  outer loop
    vertex 34.2045846911042 15.272551521542551 14.999999999999998
    vertex 14.204584691104218 15.272551521542551 -1.1749860343949574e-15
    vertex 34.2045846911042 15.272551521542551 -1.1749860343949574e-15
  endloop
endfacet
facet normal 0.0 -1.0 0.0
  outer loop
    vertex 14.204584691104218 15.272551521542551 -1.1749860343949574e-15
    vertex 34.2045846911042 15.272551521542551 14.999999999999998
    vertex 14.204584691104218 15.272551521542551 14.999999999999998
  endloop
endfacet
facet normal -0.0 -0.0 -1.0
  outer loop
    vertex 34.2045846911042 15.272551521542551 14.999999999999998
    vertex 14.204584691104218 9.272551521542551 14.999999999999998
    vertex 14.204584691104218 15.272551521542551 14.999999999999998
  endloop
endfacet
facet normal -0.0 -0.0 -1.0
  outer loop
    vertex 14.204584691104218 9.272551521542551 14.999999999999998
    vertex 34.2045846911042 15.272551521542551 14.999999999999998
    vertex 34.2045846911042 9.272551521542551 14.999999999999998
  endloop
endfacet
endsolid filament-hole1
