solid i3-Dust-Filter
facet normal -1.0 0.0 -5.412337245047639e-16
  outer loop
    vertex 47.52596520900798 21.913309800470227 26.73445693674423
    vertex 47.52596520900799 46.91330980047022 6.734456936744228
    vertex 47.52596520900799 21.913309800470227 6.734456936744228
  endloop
endfacet
facet normal -1.0 0.0 -5.412337245047639e-16
  outer loop
    vertex 47.52596520900799 46.91330980047022 6.734456936744228
    vertex 47.52596520900798 21.913309800470227 26.73445693674423
    vertex 47.52596520900798 46.91330980047022 26.73445693674423
  endloop
endfacet
facet normal 5.412337245047639e-16 0.0 -1.0
  outer loop
    vertex 47.52596520900799 46.91330980047022 6.734456936744228
    vertex 51.52596520900799 21.913309800470227 6.734456936744231
    vertex 47.52596520900799 21.913309800470227 6.734456936744228
  endloop
endfacet
facet normal 5.412337245047639e-16 0.0 -1.0
  outer loop
    vertex 51.52596520900799 21.913309800470227 6.734456936744231
    vertex 47.52596520900799 46.91330980047022 6.734456936744228
    vertex 51.52596520900799 46.91330980047022 6.734456936744231
  endloop
endfacet
facet normal 0.0 1.0 0.0
  outer loop
    vertex 47.52596520900799 46.91330980047022 6.734456936744228
    vertex 51.52596520900798 46.91330980047022 26.73445693674423
    vertex 51.52596520900799 46.91330980047022 6.734456936744231
  endloop
endfacet
facet normal 0.0 1.0 0.0
  outer loop
    vertex 51.52596520900798 46.91330980047022 26.73445693674423
    vertex 47.52596520900799 46.91330980047022 6.734456936744228
    vertex 47.52596520900798 46.91330980047022 26.73445693674423
  endloop
endfacet
facet normal 0.0 -1.0 0.0
  outer loop
    vertex 47.52596520900798 21.913309800470227 26.73445693674423
    vertex 51.52596520900799 21.913309800470227 6.734456936744231
    vertex 51.52596520900798 21.913309800470227 26.73445693674423
  endloop
endfacet
facet normal 0.0 -1.0 0.0
  outer loop
    vertex 51.52596520900799 21.913309800470227 6.734456936744231
    vertex 47.52596520900798 21.913309800470227 26.73445693674423
    vertex 47.52596520900799 21.913309800470227 6.734456936744228
  endloop
endfacet
facet normal -5.412337245047639e-16 0.0 1.0
  outer loop
    vertex 51.52596520900798 46.91330980047022 26.73445693674423
    vertex 47.52596520900798 21.913309800470227 26.73445693674423
    vertex 51.52596520900798 21.913309800470227 26.73445693674423
  endloop
endfacet
facet normal -5.412337245047639e-16 0.0 1.0
  outer loop
    vertex 47.52596520900798 21.913309800470227 26.73445693674423
    vertex 51.52596520900798 46.91330980047022 26.73445693674423
    vertex 47.52596520900798 46.91330980047022 26.73445693674423
  endloop
endfacet
facet normal 1.0 0.0 5.412337245047639e-16
  outer loop
    vertex 51.52596520900798 46.91330980047022 26.73445693674423
    vertex 51.52596520900799 21.913309800470227 6.734456936744231
    vertex 51.52596520900799 46.91330980047022 6.734456936744231
  endloop
endfacet
facet normal 1.0 0.0 5.412337245047639e-16
  outer loop
    vertex 51.52596520900799 21.913309800470227 6.734456936744231
    vertex 51.52596520900798 46.91330980047022 26.73445693674423
    vertex 51.52596520900798 21.913309800470227 26.73445693674423
  endloop
endfacet
facet normal -5.412337245047639e-16 0.0 1.0
  outer loop
    vertex 39.525965209007985 46.91330980047022 26.734456936744223
    vertex 35.525965209007985 21.913309800470227 26.734456936744223
    vertex 39.525965209007985 21.913309800470227 26.734456936744223
  endloop
endfacet
facet normal -5.412337245047639e-16 0.0 1.0
  outer loop
    vertex 35.525965209007985 21.913309800470227 26.734456936744223
    vertex 39.525965209007985 46.91330980047022 26.734456936744223
    vertex 35.525965209007985 46.91330980047022 26.734456936744223
  endloop
endfacet
facet normal 1.0 0.0 5.412337245047639e-16
  outer loop
    vertex 39.525965209007985 46.91330980047022 26.734456936744223
    vertex 39.52596520900799 21.913309800470227 6.734456936744225
    vertex 39.52596520900799 46.91330980047022 6.734456936744225
  endloop
endfacet
facet normal 1.0 0.0 5.412337245047639e-16
  outer loop
    vertex 39.52596520900799 21.913309800470227 6.734456936744225
    vertex 39.525965209007985 46.91330980047022 26.734456936744223
    vertex 39.525965209007985 21.913309800470227 26.734456936744223
  endloop
endfacet
facet normal -1.0 0.0 -5.412337245047639e-16
  outer loop
    vertex 35.525965209007985 21.913309800470227 26.734456936744223
    vertex 35.52596520900799 46.91330980047022 6.734456936744222
    vertex 35.52596520900799 21.913309800470227 6.734456936744222
  endloop
endfacet
facet normal -1.0 0.0 -5.412337245047639e-16
  outer loop
    vertex 35.52596520900799 46.91330980047022 6.734456936744222
    vertex 35.525965209007985 21.913309800470227 26.734456936744223
    vertex 35.525965209007985 46.91330980047022 26.734456936744223
  endloop
endfacet
facet normal 0.0 1.0 0.0
  outer loop
    vertex 35.52596520900799 46.91330980047022 6.734456936744222
    vertex 39.525965209007985 46.91330980047022 26.734456936744223
    vertex 39.52596520900799 46.91330980047022 6.734456936744225
  endloop
endfacet
facet normal 0.0 1.0 0.0
  outer loop
    vertex 39.525965209007985 46.91330980047022 26.734456936744223
    vertex 35.52596520900799 46.91330980047022 6.734456936744222
    vertex 35.525965209007985 46.91330980047022 26.734456936744223
  endloop
endfacet
facet normal 0.0 -1.0 0.0
  outer loop
    vertex 35.525965209007985 21.913309800470227 26.734456936744223
    vertex 39.52596520900799 21.913309800470227 6.734456936744225
    vertex 39.525965209007985 21.913309800470227 26.734456936744223
  endloop
endfacet
facet normal 0.0 -1.0 0.0
  outer loop
    vertex 39.52596520900799 21.913309800470227 6.734456936744225
    vertex 35.525965209007985 21.913309800470227 26.734456936744223
    vertex 35.52596520900799 21.913309800470227 6.734456936744222
  endloop
endfacet
facet normal 5.412337245047639e-16 0.0 -1.0
  outer loop
    vertex 35.52596520900799 46.91330980047022 6.734456936744222
    vertex 39.52596520900799 21.913309800470227 6.734456936744225
    vertex 35.52596520900799 21.913309800470227 6.734456936744222
  endloop
endfacet
facet normal 5.412337245047639e-16 0.0 -1.0
  outer loop
    vertex 39.52596520900799 21.913309800470227 6.734456936744225
    vertex 35.52596520900799 46.91330980047022 6.734456936744222
    vertex 39.52596520900799 46.91330980047022 6.734456936744225
  endloop
endfacet
facet normal -5.412337245047639e-16 0.0 1.0
  outer loop
    vertex 51.52596520900798 16.913309800470227 26.73445693674423
    vertex 12.525965209007982 21.913309800470227 26.734456936744213
    vertex 12.525965209007982 16.913309800470227 26.734456936744213
  endloop
endfacet
facet normal -5.412337245047639e-16 0.0 1.0
  outer loop
    vertex 12.525965209007982 21.913309800470227 26.734456936744213
    vertex 51.52596520900798 16.913309800470227 26.73445693674423
    vertex 51.52596520900798 21.913309800470227 26.73445693674423
  endloop
endfacet
facet normal 0.0 -1.0 0.0
  outer loop
    vertex 51.52596520900799 16.913309800470227 6.734456936744231
    vertex 12.525965209007992 16.913309800470227 6.834456936744211
    vertex 12.525965209007992 16.913309800470227 6.73445693674421
  endloop
endfacet
facet normal 0.0 -1.0 0.0
  outer loop
    vertex 12.525965209007992 16.913309800470227 6.834456936744211
    vertex 51.52596520900799 16.913309800470227 6.734456936744231
    vertex 15.088273755522955 16.913309800470227 7.171791256482438
  endloop
endfacet
facet normal 0.0 -1.0 0.0
  outer loop
    vertex 15.088273755522955 16.913309800470227 7.171791256482438
    vertex 51.52596520900799 16.913309800470227 6.734456936744231
    vertex 17.475965209007995 16.913309800470227 8.160805439278274
  endloop
endfacet
facet normal 0.0 -1.0 0.0
  outer loop
    vertex 17.475965209007995 16.913309800470227 8.160805439278274
    vertex 51.52596520900799 16.913309800470227 6.734456936744231
    vertex 51.52596520900798 16.913309800470227 26.73445693674423
  endloop
endfacet
facet normal 0.0 -1.0 0.0
  outer loop
    vertex 17.475965209007995 16.913309800470227 8.160805439278274
    vertex 51.52596520900798 16.913309800470227 26.73445693674423
    vertex 19.526322342754817 16.913309800470227 9.734099802997397
  endloop
endfacet
facet normal 0.0 -1.0 0.0
  outer loop
    vertex 19.526322342754817 16.913309800470227 9.734099802997397
    vertex 51.52596520900798 16.913309800470227 26.73445693674423
    vertex 21.099616706473938 16.913309800470227 11.784456936744222
  endloop
endfacet
facet normal 0.0 -1.0 0.0
  outer loop
    vertex 21.099616706473938 16.913309800470227 11.784456936744222
    vertex 51.52596520900798 16.913309800470227 26.73445693674423
    vertex 22.088630889269762 16.913309800470227 14.172148390229266
  endloop
endfacet
facet normal 0.0 -1.0 0.0
  outer loop
    vertex 22.088630889269762 16.913309800470227 14.172148390229266
    vertex 51.52596520900798 16.913309800470227 26.73445693674423
    vertex 22.425965209007988 16.913309800470227 16.734456936744216
  endloop
endfacet
facet normal 0.0 -1.0 0.0
  outer loop
    vertex 22.425965209007988 16.913309800470227 16.734456936744216
    vertex 51.52596520900798 16.913309800470227 26.73445693674423
    vertex 22.088630889269762 16.913309800470227 19.296765483259176
  endloop
endfacet
facet normal 0.0 -1.0 0.0
  outer loop
    vertex 22.088630889269762 16.913309800470227 19.296765483259176
    vertex 51.52596520900798 16.913309800470227 26.73445693674423
    vertex 21.099616706473928 16.913309800470227 21.684456936744215
  endloop
endfacet
facet normal 0.0 -1.0 0.0
  outer loop
    vertex 21.099616706473928 16.913309800470227 21.684456936744215
    vertex 51.52596520900798 16.913309800470227 26.73445693674423
    vertex 19.526322342754796 16.913309800470227 23.734814070491037
  endloop
endfacet
facet normal 0.0 -1.0 0.0
  outer loop
    vertex 19.526322342754796 16.913309800470227 23.734814070491037
    vertex 51.52596520900798 16.913309800470227 26.73445693674423
    vertex 17.475965209007978 16.913309800470227 25.308108434210155
  endloop
endfacet
facet normal 0.0 -1.0 0.0
  outer loop
    vertex 17.475965209007978 16.913309800470227 25.308108434210155
    vertex 51.52596520900798 16.913309800470227 26.73445693674423
    vertex 15.088273755522934 16.913309800470227 26.297122617005986
  endloop
endfacet
facet normal 0.0 -1.0 0.0
  outer loop
    vertex 15.088273755522934 16.913309800470227 26.297122617005986
    vertex 51.52596520900798 16.913309800470227 26.73445693674423
    vertex 12.525965209007982 16.913309800470227 26.634456936744208
  endloop
endfacet
facet normal 0.0 -1.0 0.0
  outer loop
    vertex 12.525965209007982 16.913309800470227 26.634456936744208
    vertex 51.52596520900798 16.913309800470227 26.73445693674423
    vertex 12.525965209007982 16.913309800470227 26.734456936744213
  endloop
endfacet
facet normal -0.1305261922200507 0.0 -0.9914448613738106
  outer loop
    vertex 14.052997575112848 16.91330980047024 22.433419311849715
    vertex 12.525965209007982 6.913309800470225 22.634456936744208
    vertex 12.525965209007982 16.91330980047024 22.634456936744208
  endloop
endfacet
facet normal -0.1305261922200507 0.0 -0.9914448613738106
  outer loop
    vertex 12.525965209007982 6.913309800470225 22.634456936744208
    vertex 14.052997575112848 16.91330980047024 22.433419311849715
    vertex 14.052997575112848 6.913309800470225 22.433419311849715
  endloop
endfacet
facet normal -0.7933533402912345 0.0 -0.6087614290087218
  outer loop
    vertex 16.697895218008615 16.91330980047024 20.906386945744842
    vertex 17.63551509133617 6.913309800470225 19.684456936744215
    vertex 16.697895218008615 6.913309800470225 20.906386945744842
  endloop
endfacet
facet normal -0.7933533402912345 0.0 -0.6087614290087218
  outer loop
    vertex 17.63551509133617 6.913309800470225 19.684456936744215
    vertex 16.697895218008615 16.91330980047024 20.906386945744842
    vertex 17.63551509133617 16.91330980047024 19.684456936744215
  endloop
endfacet
facet normal -0.6087614290087202 0.0 -0.7933533402912355
  outer loop
    vertex 16.697895218008615 16.91330980047024 20.906386945744842
    vertex 15.475965209007981 6.913309800470225 21.844006819072405
    vertex 15.475965209007981 16.91330980047024 21.844006819072405
  endloop
endfacet
facet normal -0.6087614290087202 0.0 -0.7933533402912355
  outer loop
    vertex 15.475965209007981 6.913309800470225 21.844006819072405
    vertex 16.697895218008615 16.91330980047024 20.906386945744842
    vertex 16.697895218008615 6.913309800470225 20.906386945744842
  endloop
endfacet
facet normal -0.38268343236508784 0.0 -0.9238795325112876
  outer loop
    vertex 15.475965209007981 16.91330980047024 21.844006819072405
    vertex 14.052997575112848 6.913309800470225 22.433419311849715
    vertex 14.052997575112848 16.91330980047024 22.433419311849715
  endloop
endfacet
facet normal -0.38268343236508784 0.0 -0.9238795325112876
  outer loop
    vertex 14.052997575112848 6.913309800470225 22.433419311849715
    vertex 15.475965209007981 16.91330980047024 21.844006819072405
    vertex 15.475965209007981 6.913309800470225 21.844006819072405
  endloop
endfacet
facet normal 1.0 0.0 5.412337245047639e-16
  outer loop
    vertex 51.52596520900799 21.913309800470227 6.734456936744231
    vertex 51.52596520900798 16.913309800470227 26.73445693674423
    vertex 51.52596520900799 16.913309800470227 6.734456936744231
  endloop
endfacet
facet normal 1.0 0.0 5.412337245047639e-16
  outer loop
    vertex 51.52596520900798 16.913309800470227 26.73445693674423
    vertex 51.52596520900799 21.913309800470227 6.734456936744231
    vertex 51.52596520900798 21.913309800470227 26.73445693674423
  endloop
endfacet
facet normal -1.0 0.0 -5.412337245047639e-16
  outer loop
    vertex 12.525965209007987 21.913309800470216 14.734456936744206
    vertex 12.525965209007992 16.91330980047024 10.834456936744209
    vertex 12.525965209007987 16.913309800470238 14.734456936744206
  endloop
endfacet
facet normal -1.0 0.0 -5.412337245047639e-16
  outer loop
    vertex 12.525965209007992 16.91330980047024 10.834456936744209
    vertex 12.525965209007992 6.913309800470225 6.834456936744211
    vertex 12.525965209007992 6.913309800470225 10.834456936744209
  endloop
endfacet
facet normal -1.0 0.0 -5.412337245047639e-16
  outer loop
    vertex 12.525965209007992 6.913309800470225 6.834456936744211
    vertex 12.525965209007992 16.91330980047024 10.834456936744209
    vertex 12.525965209007992 16.913309800470227 6.834456936744211
  endloop
endfacet
facet normal -1.0 0.0 -5.412337245047639e-16
  outer loop
    vertex 12.525965209007992 16.913309800470227 6.834456936744211
    vertex 12.525965209007992 16.91330980047024 10.834456936744209
    vertex 12.525965209007992 21.913309800470216 6.834456936744211
  endloop
endfacet
facet normal -1.0 0.0 -5.412337245047639e-16
  outer loop
    vertex 12.525965209007992 21.913309800470216 6.834456936744211
    vertex 12.525965209007992 16.91330980047024 10.834456936744209
    vertex 12.525965209007987 21.913309800470216 14.734456936744206
  endloop
endfacet
facet normal -1.7022233575208998e-16 1.0 -1.1671660220473493e-18
  outer loop
    vertex 12.525965209007992 21.913309800470216 6.834456936744211
    vertex 51.52596520900799 21.913309800470227 6.734456936744231
    vertex 12.525965209007992 21.913309800470227 6.73445693674421
  endloop
endfacet
facet normal -1.7022233575208998e-16 1.0 -1.1671660220473493e-18
  outer loop
    vertex 51.52596520900799 21.913309800470227 6.734456936744231
    vertex 12.525965209007992 21.913309800470216 6.834456936744211
    vertex 51.52596520900798 21.913309800470227 26.73445693674423
  endloop
endfacet
facet normal -1.7022233575208998e-16 1.0 -1.1671660220473493e-18
  outer loop
    vertex 51.52596520900798 21.913309800470227 26.73445693674423
    vertex 12.525965209007992 21.913309800470216 6.834456936744211
    vertex 13.043603299213032 21.913309800470216 14.80260528416607
  endloop
endfacet
facet normal -1.7022233575208998e-16 1.0 -1.1671660220473493e-18
  outer loop
    vertex 13.043603299213032 21.913309800470216 14.80260528416607
    vertex 12.525965209007992 21.913309800470216 6.834456936744211
    vertex 12.525965209007987 21.913309800470216 14.734456936744206
  endloop
endfacet
facet normal -1.7022233575208998e-16 1.0 -1.1671660220473493e-18
  outer loop
    vertex 51.52596520900798 21.913309800470227 26.73445693674423
    vertex 13.043603299213032 21.913309800470216 14.80260528416607
    vertex 13.52596520900799 21.913309800470216 15.00240612917533
  endloop
endfacet
facet normal -1.7022233575208998e-16 1.0 -1.1671660220473493e-18
  outer loop
    vertex 51.52596520900798 21.913309800470227 26.73445693674423
    vertex 13.52596520900799 21.913309800470216 15.00240612917533
    vertex 13.940178771381087 21.913309800470216 15.320243374371115
  endloop
endfacet
facet normal -1.7022233575208998e-16 1.0 -1.1671660220473493e-18
  outer loop
    vertex 51.52596520900798 21.913309800470227 26.73445693674423
    vertex 13.940178771381087 21.913309800470216 15.320243374371115
    vertex 14.258016016576866 21.913309800470216 15.73445693674421
  endloop
endfacet
facet normal -1.7022233575208998e-16 1.0 -1.1671660220473493e-18
  outer loop
    vertex 51.52596520900798 21.913309800470227 26.73445693674423
    vertex 14.258016016576866 21.913309800470216 15.73445693674421
    vertex 14.457816861586126 21.913309800470216 16.21681884653917
  endloop
endfacet
facet normal -1.7022233575208998e-16 1.0 -1.1671660220473493e-18
  outer loop
    vertex 51.52596520900798 21.913309800470227 26.73445693674423
    vertex 14.457816861586126 21.913309800470216 16.21681884653917
    vertex 14.525965209007989 21.913309800470216 16.734456936744213
  endloop
endfacet
facet normal -1.7022233575208998e-16 1.0 -1.1671660220473493e-18
  outer loop
    vertex 51.52596520900798 21.913309800470227 26.73445693674423
    vertex 14.525965209007989 21.913309800470216 16.734456936744213
    vertex 14.457816861586126 21.913309800470216 17.252095026949252
  endloop
endfacet
facet normal -1.7022233575208998e-16 1.0 -1.1671660220473493e-18
  outer loop
    vertex 51.52596520900798 21.913309800470227 26.73445693674423
    vertex 14.457816861586126 21.913309800470216 17.252095026949252
    vertex 14.258016016576866 21.913309800470216 17.734456936744213
  endloop
endfacet
facet normal -1.7022233575208998e-16 1.0 -1.1671660220473493e-18
  outer loop
    vertex 51.52596520900798 21.913309800470227 26.73445693674423
    vertex 14.258016016576866 21.913309800470216 17.734456936744213
    vertex 13.940178771381087 21.913309800470216 18.14867049911731
  endloop
endfacet
facet normal -1.7022233575208998e-16 1.0 -1.1671660220473493e-18
  outer loop
    vertex 51.52596520900798 21.913309800470227 26.73445693674423
    vertex 13.940178771381087 21.913309800470216 18.14867049911731
    vertex 13.525965209007985 21.913309800470216 18.46650774431309
  endloop
endfacet
facet normal -1.7022233575208998e-16 1.0 -1.1671660220473493e-18
  outer loop
    vertex 51.52596520900798 21.913309800470227 26.73445693674423
    vertex 13.525965209007985 21.913309800470216 18.46650774431309
    vertex 13.043603299213027 21.913309800470216 18.666308589322348
  endloop
endfacet
facet normal -1.7022233575208998e-16 1.0 -1.1671660220473493e-18
  outer loop
    vertex 51.52596520900798 21.913309800470227 26.73445693674423
    vertex 13.043603299213027 21.913309800470216 18.666308589322348
    vertex 12.525965209007987 21.913309800470216 18.73445693674421
  endloop
endfacet
facet normal -1.7022233575208998e-16 1.0 -1.1671660220473493e-18
  outer loop
    vertex 51.52596520900798 21.913309800470227 26.73445693674423
    vertex 12.525965209007987 21.913309800470216 18.73445693674421
    vertex 12.525965209007982 21.913309800470216 26.634456936744208
  endloop
endfacet
facet normal -1.7022233575208998e-16 1.0 -1.1671660220473493e-18
  outer loop
    vertex 51.52596520900798 21.913309800470227 26.73445693674423
    vertex 12.525965209007982 21.913309800470216 26.634456936744208
    vertex 12.525965209007982 21.913309800470227 26.734456936744213
  endloop
endfacet
facet normal 5.412337245047639e-16 0.0 -1.0
  outer loop
    vertex 51.52596520900799 21.913309800470227 6.734456936744231
    vertex 12.525965209007992 16.913309800470227 6.73445693674421
    vertex 12.525965209007992 21.913309800470227 6.73445693674421
  endloop
endfacet
facet normal 5.412337245047639e-16 0.0 -1.0
  outer loop
    vertex 12.525965209007992 16.913309800470227 6.73445693674421
    vertex 51.52596520900799 21.913309800470227 6.734456936744231
    vertex 51.52596520900799 16.913309800470227 6.734456936744231
  endloop
endfacet
facet normal -0.99144486137381 0.0 -0.13052619222005438
  outer loop
    vertex 18.224927584113487 16.91330980047024 18.261489302849093
    vertex 18.425965209007988 6.913309800470225 16.734456936744213
    vertex 18.224927584113487 6.913309800470225 18.261489302849093
  endloop
endfacet
facet normal -0.99144486137381 0.0 -0.13052619222005438
  outer loop
    vertex 18.425965209007988 6.913309800470225 16.734456936744213
    vertex 18.224927584113487 16.91330980047024 18.261489302849093
    vertex 18.425965209007988 16.91330980047024 16.734456936744213
  endloop
endfacet
facet normal -0.7933533402912354 0.0 0.6087614290087203
  outer loop
    vertex 5.525608075261163 21.913309800470216 23.734814070491023
    vertex 3.952313711542047 6.913309800470225 21.684456936744205
    vertex 5.525608075261163 6.913309800470225 23.734814070491023
  endloop
endfacet
facet normal -0.7933533402912354 0.0 0.6087614290087203
  outer loop
    vertex 3.952313711542047 6.913309800470225 21.684456936744205
    vertex 5.525608075261163 21.913309800470216 23.734814070491023
    vertex 3.952313711542047 21.913309800470216 21.684456936744205
  endloop
endfacet
facet normal -0.3826834323650898 0.0 -0.9238795325112867
  outer loop
    vertex 9.963656662493035 21.913309800470216 7.171791256482433
    vertex 7.575965209007997 6.913309800470225 8.160805439278265
    vertex 7.575965209007997 21.913309800470216 8.160805439278265
  endloop
endfacet
facet normal -0.3826834323650898 0.0 -0.9238795325112867
  outer loop
    vertex 7.575965209007997 6.913309800470225 8.160805439278265
    vertex 9.963656662493035 21.913309800470216 7.171791256482433
    vertex 9.963656662493035 6.913309800470225 7.171791256482433
  endloop
endfacet
facet normal -0.7933533402912347 0.0 -0.6087614290087212
  outer loop
    vertex 3.9523137115420526 21.913309800470216 11.784456936744203
    vertex 5.525608075261174 6.913309800470225 9.734099802997385
    vertex 3.9523137115420526 6.913309800470225 11.784456936744203
  endloop
endfacet
facet normal -0.7933533402912347 0.0 -0.6087614290087212
  outer loop
    vertex 5.525608075261174 6.913309800470225 9.734099802997385
    vertex 3.9523137115420526 21.913309800470216 11.784456936744203
    vertex 5.525608075261174 21.913309800470216 9.734099802997385
  endloop
endfacet
facet normal -0.6087614290087218 0.0 0.7933533402912344
  outer loop
    vertex 7.57596520900798 6.913309800470225 25.308108434210148
    vertex 5.525608075261163 21.913309800470216 23.734814070491023
    vertex 5.525608075261163 6.913309800470225 23.734814070491023
  endloop
endfacet
facet normal -0.6087614290087218 0.0 0.7933533402912344
  outer loop
    vertex 5.525608075261163 21.913309800470216 23.734814070491023
    vertex 7.57596520900798 6.913309800470225 25.308108434210148
    vertex 7.57596520900798 21.913309800470216 25.308108434210148
  endloop
endfacet
facet normal -0.130526192220051 -1.9360126559448683e-19 -0.9914448613738106
  outer loop
    vertex 12.525965209007992 21.913309800470216 6.834456936744211
    vertex 9.963656662493035 6.913309800470225 7.171791256482433
    vertex 9.963656662493035 21.913309800470216 7.171791256482433
  endloop
endfacet
facet normal -0.130526192220051 -1.9360126559448683e-19 -0.9914448613738106
  outer loop
    vertex 9.963656662493035 6.913309800470225 7.171791256482433
    vertex 12.525965209007992 21.913309800470216 6.834456936744211
    vertex 12.525965209007992 6.913309800470225 6.834456936744211
  endloop
endfacet
facet normal -0.130526192220051 -1.9360126559448683e-19 -0.9914448613738106
  outer loop
    vertex 12.525965209007992 6.913309800470225 6.834456936744211
    vertex 12.525965209007992 21.913309800470216 6.834456936744211
    vertex 12.525965209007992 16.913309800470227 6.834456936744211
  endloop
endfacet
facet normal -0.9238795325112863 0.0 -0.38268343236509106
  outer loop
    vertex 17.63551509133617 16.91330980047024 19.684456936744215
    vertex 18.224927584113487 6.913309800470225 18.261489302849093
    vertex 17.63551509133617 6.913309800470225 19.684456936744215
  endloop
endfacet
facet normal -0.9238795325112863 0.0 -0.38268343236509106
  outer loop
    vertex 18.224927584113487 6.913309800470225 18.261489302849093
    vertex 17.63551509133617 16.91330980047024 19.684456936744215
    vertex 18.224927584113487 16.91330980047024 18.261489302849093
  endloop
endfacet
facet normal -0.382683432365091 0.0 0.9238795325112863
  outer loop
    vertex 9.963656662493024 6.913309800470225 26.297122617005986
    vertex 7.57596520900798 21.913309800470216 25.308108434210148
    vertex 7.57596520900798 6.913309800470225 25.308108434210148
  endloop
endfacet
facet normal -0.382683432365091 0.0 0.9238795325112863
  outer loop
    vertex 7.57596520900798 21.913309800470216 25.308108434210148
    vertex 9.963656662493024 6.913309800470225 26.297122617005986
    vertex 9.963656662493024 21.913309800470216 26.297122617005986
  endloop
endfacet
facet normal -0.9238795325112867 0.0 0.38268343236509
  outer loop
    vertex 3.952313711542047 21.913309800470216 21.684456936744205
    vertex 2.9632995287462114 6.913309800470225 19.296765483259158
    vertex 3.952313711542047 6.913309800470225 21.684456936744205
  endloop
endfacet
facet normal -0.9238795325112867 0.0 0.38268343236509
  outer loop
    vertex 2.9632995287462114 6.913309800470225 19.296765483259158
    vertex 3.952313711542047 21.913309800470216 21.684456936744205
    vertex 2.9632995287462114 21.913309800470216 19.296765483259158
  endloop
endfacet
facet normal -0.9914448613738104 0.0 -0.13052619222005155
  outer loop
    vertex 2.6259652090079886 21.913309800470216 16.734456936744202
    vertex 2.9632995287462114 6.913309800470225 14.172148390229246
    vertex 2.6259652090079886 6.913309800470225 16.734456936744202
  endloop
endfacet
facet normal -0.9914448613738104 0.0 -0.13052619222005155
  outer loop
    vertex 2.9632995287462114 6.913309800470225 14.172148390229246
    vertex 2.6259652090079886 21.913309800470216 16.734456936744202
    vertex 2.9632995287462114 21.913309800470216 14.172148390229246
  endloop
endfacet
facet normal 3.139673241086295e-17 1.0 -9.872864293934197e-19
  outer loop
    vertex 9.963656662493035 21.913309800470216 7.171791256482433
    vertex 12.525965209007987 21.913309800470216 14.734456936744206
    vertex 12.525965209007992 21.913309800470216 6.834456936744211
  endloop
endfacet
facet normal 3.139673241086295e-17 1.0 -9.872864293934197e-19
  outer loop
    vertex 12.525965209007987 21.913309800470216 14.734456936744206
    vertex 9.963656662493035 21.913309800470216 7.171791256482433
    vertex 7.575965209007997 21.913309800470216 8.160805439278265
  endloop
endfacet
facet normal 3.139673241086295e-17 1.0 -9.872864293934197e-19
  outer loop
    vertex 12.525965209007987 21.913309800470216 14.734456936744206
    vertex 7.575965209007997 21.913309800470216 8.160805439278265
    vertex 5.525608075261174 21.913309800470216 9.734099802997385
  endloop
endfacet
facet normal 3.139673241086295e-17 1.0 -9.872864293934197e-19
  outer loop
    vertex 12.525965209007987 21.913309800470216 14.734456936744206
    vertex 5.525608075261174 21.913309800470216 9.734099802997385
    vertex 3.9523137115420526 21.913309800470216 11.784456936744203
  endloop
endfacet
facet normal 3.139673241086295e-17 1.0 -9.872864293934197e-19
  outer loop
    vertex 12.525965209007987 21.913309800470216 14.734456936744206
    vertex 3.9523137115420526 21.913309800470216 11.784456936744203
    vertex 2.9632995287462114 21.913309800470216 14.172148390229246
  endloop
endfacet
facet normal 3.139673241086295e-17 1.0 -9.872864293934197e-19
  outer loop
    vertex 12.525965209007987 21.913309800470216 14.734456936744206
    vertex 2.9632995287462114 21.913309800470216 14.172148390229246
    vertex 12.008327118802947 21.913309800470216 14.80260528416607
  endloop
endfacet
facet normal 3.139673241086295e-17 1.0 -9.872864293934197e-19
  outer loop
    vertex 12.008327118802947 21.913309800470216 14.80260528416607
    vertex 2.9632995287462114 21.913309800470216 14.172148390229246
    vertex 2.6259652090079886 21.913309800470216 16.734456936744202
  endloop
endfacet
facet normal 3.139673241086295e-17 1.0 -9.872864293934197e-19
  outer loop
    vertex 12.008327118802947 21.913309800470216 14.80260528416607
    vertex 2.6259652090079886 21.913309800470216 16.734456936744202
    vertex 11.525965209007989 21.913309800470216 15.00240612917533
  endloop
endfacet
facet normal 3.139673241086295e-17 1.0 -9.872864293934197e-19
  outer loop
    vertex 11.525965209007989 21.913309800470216 15.00240612917533
    vertex 2.6259652090079886 21.913309800470216 16.734456936744202
    vertex 11.11175164663489 21.913309800470216 15.32024337437111
  endloop
endfacet
facet normal 3.139673241086295e-17 1.0 -9.872864293934197e-19
  outer loop
    vertex 11.11175164663489 21.913309800470216 15.32024337437111
    vertex 2.6259652090079886 21.913309800470216 16.734456936744202
    vertex 10.793914401439109 21.913309800470216 15.734456936744204
  endloop
endfacet
facet normal 3.139673241086295e-17 1.0 -9.872864293934197e-19
  outer loop
    vertex 10.793914401439109 21.913309800470216 15.734456936744204
    vertex 2.6259652090079886 21.913309800470216 16.734456936744202
    vertex 10.594113556429848 21.913309800470216 16.216818846539162
  endloop
endfacet
facet normal 3.139673241086295e-17 1.0 -9.872864293934197e-19
  outer loop
    vertex 10.594113556429848 21.913309800470216 16.216818846539162
    vertex 2.6259652090079886 21.913309800470216 16.734456936744202
    vertex 10.525965209007985 21.913309800470216 16.73445693674421
  endloop
endfacet
facet normal 3.139673241086295e-17 1.0 -9.872864293934197e-19
  outer loop
    vertex 10.525965209007985 21.913309800470216 16.73445693674421
    vertex 2.6259652090079886 21.913309800470216 16.734456936744202
    vertex 2.9632995287462114 21.913309800470216 19.296765483259158
  endloop
endfacet
facet normal 3.139673241086295e-17 1.0 -9.872864293934197e-19
  outer loop
    vertex 10.525965209007985 21.913309800470216 16.73445693674421
    vertex 2.9632995287462114 21.913309800470216 19.296765483259158
    vertex 10.594113556429848 21.913309800470216 17.25209502694925
  endloop
endfacet
facet normal 3.139673241086295e-17 1.0 -9.872864293934197e-19
  outer loop
    vertex 10.594113556429848 21.913309800470216 17.25209502694925
    vertex 2.9632995287462114 21.913309800470216 19.296765483259158
    vertex 10.793914401439109 21.913309800470216 17.73445693674421
  endloop
endfacet
facet normal 3.139673241086295e-17 1.0 -9.872864293934197e-19
  outer loop
    vertex 10.793914401439109 21.913309800470216 17.73445693674421
    vertex 2.9632995287462114 21.913309800470216 19.296765483259158
    vertex 11.11175164663489 21.913309800470216 18.148670499117305
  endloop
endfacet
facet normal 3.139673241086295e-17 1.0 -9.872864293934197e-19
  outer loop
    vertex 11.11175164663489 21.913309800470216 18.148670499117305
    vertex 2.9632995287462114 21.913309800470216 19.296765483259158
    vertex 11.525965209007984 21.913309800470216 18.46650774431309
  endloop
endfacet
facet normal 3.139673241086295e-17 1.0 -9.872864293934197e-19
  outer loop
    vertex 11.525965209007984 21.913309800470216 18.46650774431309
    vertex 2.9632995287462114 21.913309800470216 19.296765483259158
    vertex 12.008327118802947 21.913309800470216 18.666308589322348
  endloop
endfacet
facet normal 3.139673241086295e-17 1.0 -9.872864293934197e-19
  outer loop
    vertex 12.008327118802947 21.913309800470216 18.666308589322348
    vertex 2.9632995287462114 21.913309800470216 19.296765483259158
    vertex 12.525965209007987 21.913309800470216 18.73445693674421
  endloop
endfacet
facet normal 3.139673241086295e-17 1.0 -9.872864293934197e-19
  outer loop
    vertex 12.525965209007987 21.913309800470216 18.73445693674421
    vertex 2.9632995287462114 21.913309800470216 19.296765483259158
    vertex 12.525965209007982 21.913309800470216 26.634456936744208
  endloop
endfacet
facet normal 3.139673241086295e-17 1.0 -9.872864293934197e-19
  outer loop
    vertex 12.525965209007982 21.913309800470216 26.634456936744208
    vertex 2.9632995287462114 21.913309800470216 19.296765483259158
    vertex 3.952313711542047 21.913309800470216 21.684456936744205
  endloop
endfacet
facet normal 3.139673241086295e-17 1.0 -9.872864293934197e-19
  outer loop
    vertex 12.525965209007982 21.913309800470216 26.634456936744208
    vertex 3.952313711542047 21.913309800470216 21.684456936744205
    vertex 5.525608075261163 21.913309800470216 23.734814070491023
  endloop
endfacet
facet normal 3.139673241086295e-17 1.0 -9.872864293934197e-19
  outer loop
    vertex 12.525965209007982 21.913309800470216 26.634456936744208
    vertex 5.525608075261163 21.913309800470216 23.734814070491023
    vertex 7.57596520900798 21.913309800470216 25.308108434210148
  endloop
endfacet
facet normal 3.139673241086295e-17 1.0 -9.872864293934197e-19
  outer loop
    vertex 12.525965209007982 21.913309800470216 26.634456936744208
    vertex 7.57596520900798 21.913309800470216 25.308108434210148
    vertex 9.963656662493024 21.913309800470216 26.297122617005986
  endloop
endfacet
facet normal -0.6087614290087198 0.0 -0.7933533402912358
  outer loop
    vertex 7.575965209007997 21.913309800470216 8.160805439278265
    vertex 5.525608075261174 6.913309800470225 9.734099802997385
    vertex 5.525608075261174 21.913309800470216 9.734099802997385
  endloop
endfacet
facet normal -0.6087614290087198 0.0 -0.7933533402912358
  outer loop
    vertex 5.525608075261174 6.913309800470225 9.734099802997385
    vertex 7.575965209007997 21.913309800470216 8.160805439278265
    vertex 7.575965209007997 6.913309800470225 8.160805439278265
  endloop
endfacet
facet normal -0.13052619222005155 -5.808037967834605e-19 0.9914448613738104
  outer loop
    vertex 12.525965209007982 6.913309800470225 26.634456936744208
    vertex 9.963656662493024 21.913309800470216 26.297122617005986
    vertex 9.963656662493024 6.913309800470225 26.297122617005986
  endloop
endfacet
facet normal -0.13052619222005155 -5.808037967834605e-19 0.9914448613738104
  outer loop
    vertex 9.963656662493024 21.913309800470216 26.297122617005986
    vertex 12.525965209007982 6.913309800470225 26.634456936744208
    vertex 12.525965209007982 21.913309800470216 26.634456936744208
  endloop
endfacet
facet normal -0.13052619222005155 -5.808037967834605e-19 0.9914448613738104
  outer loop
    vertex 12.525965209007982 21.913309800470216 26.634456936744208
    vertex 12.525965209007982 6.913309800470225 26.634456936744208
    vertex 12.525965209007982 16.913309800470227 26.634456936744208
  endloop
endfacet
facet normal -0.9238795325112871 0.0 0.38268343236508945
  outer loop
    vertex 18.22492758411349 16.91330980047024 15.207424570639342
    vertex 17.635515091336178 6.913309800470225 13.784456936744213
    vertex 18.22492758411349 6.913309800470225 15.207424570639342
  endloop
endfacet
facet normal -0.9238795325112871 0.0 0.38268343236508945
  outer loop
    vertex 17.635515091336178 6.913309800470225 13.784456936744213
    vertex 18.22492758411349 16.91330980047024 15.207424570639342
    vertex 17.635515091336178 16.91330980047024 13.784456936744213
  endloop
endfacet
facet normal -0.9914448613738107 0.0 0.13052619222005019
  outer loop
    vertex 18.425965209007988 16.91330980047024 16.734456936744213
    vertex 18.22492758411349 6.913309800470225 15.207424570639342
    vertex 18.425965209007988 6.913309800470225 16.734456936744213
  endloop
endfacet
facet normal -0.9914448613738107 0.0 0.13052619222005019
  outer loop
    vertex 18.22492758411349 6.913309800470225 15.207424570639342
    vertex 18.425965209007988 16.91330980047024 16.734456936744213
    vertex 18.22492758411349 16.91330980047024 15.207424570639342
  endloop
endfacet
facet normal -0.9238795325112863 0.0 -0.3826834323650912
  outer loop
    vertex 2.9632995287462114 21.913309800470216 14.172148390229246
    vertex 3.9523137115420526 6.913309800470225 11.784456936744203
    vertex 2.9632995287462114 6.913309800470225 14.172148390229246
  endloop
endfacet
facet normal -0.9238795325112863 0.0 -0.3826834323650912
  outer loop
    vertex 3.9523137115420526 6.913309800470225 11.784456936744203
    vertex 2.9632995287462114 21.913309800470216 14.172148390229246
    vertex 3.9523137115420526 21.913309800470216 11.784456936744203
  endloop
endfacet
facet normal -0.9914448613738106 0.0 0.13052619222005069
  outer loop
    vertex 2.9632995287462114 21.913309800470216 19.296765483259158
    vertex 2.6259652090079886 6.913309800470225 16.734456936744202
    vertex 2.9632995287462114 6.913309800470225 19.296765483259158
  endloop
endfacet
facet normal -0.9914448613738106 0.0 0.13052619222005069
  outer loop
    vertex 2.6259652090079886 6.913309800470225 16.734456936744202
    vertex 2.9632995287462114 21.913309800470216 19.296765483259158
    vertex 2.6259652090079886 21.913309800470216 16.734456936744202
  endloop
endfacet
facet normal 0.38268343236508806 0.0 0.9238795325112874
  outer loop
    vertex 17.475965209007978 6.913309800470225 25.308108434210155
    vertex 15.088273755522934 16.913309800470227 26.297122617005986
    vertex 15.088273755522934 6.913309800470225 26.297122617005986
  endloop
endfacet
facet normal 0.38268343236508806 0.0 0.9238795325112874
  outer loop
    vertex 15.088273755522934 16.913309800470227 26.297122617005986
    vertex 17.475965209007978 6.913309800470225 25.308108434210155
    vertex 17.475965209007978 16.913309800470227 25.308108434210155
  endloop
endfacet
facet normal 0.9914448613738104 0.0 0.13052619222005132
  outer loop
    vertex 22.425965209007988 16.913309800470227 16.734456936744216
    vertex 22.088630889269762 6.913309800470225 19.296765483259176
    vertex 22.425965209007988 6.913309800470225 16.734456936744216
  endloop
endfacet
facet normal 0.9914448613738104 0.0 0.13052619222005132
  outer loop
    vertex 22.088630889269762 6.913309800470225 19.296765483259176
    vertex 22.425965209007988 16.913309800470227 16.734456936744216
    vertex 22.088630889269762 16.913309800470227 19.296765483259176
  endloop
endfacet
facet normal 0.923879532511286 0.0 0.3826834323650915
  outer loop
    vertex 22.088630889269762 16.913309800470227 19.296765483259176
    vertex 21.099616706473928 6.913309800470225 21.684456936744215
    vertex 22.088630889269762 6.913309800470225 19.296765483259176
  endloop
endfacet
facet normal 0.923879532511286 0.0 0.3826834323650915
  outer loop
    vertex 21.099616706473928 6.913309800470225 21.684456936744215
    vertex 22.088630889269762 16.913309800470227 19.296765483259176
    vertex 21.099616706473928 16.913309800470227 21.684456936744215
  endloop
endfacet
facet normal 0.9914448613738106 0.0 -0.13052619222005077
  outer loop
    vertex 22.088630889269762 16.913309800470227 14.172148390229266
    vertex 22.425965209007988 6.913309800470225 16.734456936744216
    vertex 22.088630889269762 6.913309800470225 14.172148390229266
  endloop
endfacet
facet normal 0.9914448613738106 0.0 -0.13052619222005077
  outer loop
    vertex 22.425965209007988 6.913309800470225 16.734456936744216
    vertex 22.088630889269762 16.913309800470227 14.172148390229266
    vertex 22.425965209007988 16.913309800470227 16.734456936744216
  endloop
endfacet
facet normal 5.53600628559811e-48 -1.0 8.553155680828576e-33
  outer loop
    vertex 15.088273755522955 6.913309800470225 7.171791256482438
    vertex 12.525965209007992 6.913309800470225 10.834456936744209
    vertex 12.525965209007992 6.913309800470225 6.834456936744211
  endloop
endfacet
facet normal 5.53600628559811e-48 -1.0 8.553155680828576e-33
  outer loop
    vertex 12.525965209007992 6.913309800470225 10.834456936744209
    vertex 15.088273755522955 6.913309800470225 7.171791256482438
    vertex 17.475965209007995 6.913309800470225 8.160805439278274
  endloop
endfacet
facet normal 5.53600628559811e-48 -1.0 8.553155680828576e-33
  outer loop
    vertex 12.525965209007992 6.913309800470225 10.834456936744209
    vertex 17.475965209007995 6.913309800470225 8.160805439278274
    vertex 19.526322342754817 6.913309800470225 9.734099802997397
  endloop
endfacet
facet normal 5.53600628559811e-48 -1.0 8.553155680828576e-33
  outer loop
    vertex 12.525965209007992 6.913309800470225 10.834456936744209
    vertex 19.526322342754817 6.913309800470225 9.734099802997397
    vertex 21.099616706473938 6.913309800470225 11.784456936744222
  endloop
endfacet
facet normal 5.53600628559811e-48 -1.0 8.553155680828576e-33
  outer loop
    vertex 12.525965209007992 6.913309800470225 10.834456936744209
    vertex 21.099616706473938 6.913309800470225 11.784456936744222
    vertex 14.05299757511287 6.913309800470225 11.035494561638709
  endloop
endfacet
facet normal 5.53600628559811e-48 -1.0 8.553155680828576e-33
  outer loop
    vertex 14.05299757511287 6.913309800470225 11.035494561638709
    vertex 21.099616706473938 6.913309800470225 11.784456936744222
    vertex 15.475965209007994 6.913309800470225 11.624907054416024
  endloop
endfacet
facet normal 5.53600628559811e-48 -1.0 8.553155680828576e-33
  outer loop
    vertex 15.475965209007994 6.913309800470225 11.624907054416024
    vertex 21.099616706473938 6.913309800470225 11.784456936744222
    vertex 16.69789521800862 6.913309800470225 12.562526927743583
  endloop
endfacet
facet normal 5.53600628559811e-48 -1.0 8.553155680828576e-33
  outer loop
    vertex 16.69789521800862 6.913309800470225 12.562526927743583
    vertex 21.099616706473938 6.913309800470225 11.784456936744222
    vertex 22.088630889269762 6.913309800470225 14.172148390229266
  endloop
endfacet
facet normal 5.53600628559811e-48 -1.0 8.553155680828576e-33
  outer loop
    vertex 16.69789521800862 6.913309800470225 12.562526927743583
    vertex 22.088630889269762 6.913309800470225 14.172148390229266
    vertex 17.635515091336178 6.913309800470225 13.784456936744213
  endloop
endfacet
facet normal 5.53600628559811e-48 -1.0 8.553155680828576e-33
  outer loop
    vertex 17.635515091336178 6.913309800470225 13.784456936744213
    vertex 22.088630889269762 6.913309800470225 14.172148390229266
    vertex 18.22492758411349 6.913309800470225 15.207424570639342
  endloop
endfacet
facet normal 5.53600628559811e-48 -1.0 8.553155680828576e-33
  outer loop
    vertex 18.22492758411349 6.913309800470225 15.207424570639342
    vertex 22.088630889269762 6.913309800470225 14.172148390229266
    vertex 22.425965209007988 6.913309800470225 16.734456936744216
  endloop
endfacet
facet normal 5.53600628559811e-48 -1.0 8.553155680828576e-33
  outer loop
    vertex 18.22492758411349 6.913309800470225 15.207424570639342
    vertex 22.425965209007988 6.913309800470225 16.734456936744216
    vertex 18.425965209007988 6.913309800470225 16.734456936744213
  endloop
endfacet
facet normal 5.53600628559811e-48 -1.0 8.553155680828576e-33
  outer loop
    vertex 18.425965209007988 6.913309800470225 16.734456936744213
    vertex 22.425965209007988 6.913309800470225 16.734456936744216
    vertex 18.224927584113487 6.913309800470225 18.261489302849093
  endloop
endfacet
facet normal 5.53600628559811e-48 -1.0 8.553155680828576e-33
  outer loop
    vertex 18.224927584113487 6.913309800470225 18.261489302849093
    vertex 22.425965209007988 6.913309800470225 16.734456936744216
    vertex 22.088630889269762 6.913309800470225 19.296765483259176
  endloop
endfacet
facet normal 5.53600628559811e-48 -1.0 8.553155680828576e-33
  outer loop
    vertex 18.224927584113487 6.913309800470225 18.261489302849093
    vertex 22.088630889269762 6.913309800470225 19.296765483259176
    vertex 17.63551509133617 6.913309800470225 19.684456936744215
  endloop
endfacet
facet normal 5.53600628559811e-48 -1.0 8.553155680828576e-33
  outer loop
    vertex 17.63551509133617 6.913309800470225 19.684456936744215
    vertex 22.088630889269762 6.913309800470225 19.296765483259176
    vertex 21.099616706473928 6.913309800470225 21.684456936744215
  endloop
endfacet
facet normal 5.53600628559811e-48 -1.0 8.553155680828576e-33
  outer loop
    vertex 17.63551509133617 6.913309800470225 19.684456936744215
    vertex 21.099616706473928 6.913309800470225 21.684456936744215
    vertex 16.697895218008615 6.913309800470225 20.906386945744842
  endloop
endfacet
facet normal 5.53600628559811e-48 -1.0 8.553155680828576e-33
  outer loop
    vertex 16.697895218008615 6.913309800470225 20.906386945744842
    vertex 21.099616706473928 6.913309800470225 21.684456936744215
    vertex 15.475965209007981 6.913309800470225 21.844006819072405
  endloop
endfacet
facet normal 5.53600628559811e-48 -1.0 8.553155680828576e-33
  outer loop
    vertex 15.475965209007981 6.913309800470225 21.844006819072405
    vertex 21.099616706473928 6.913309800470225 21.684456936744215
    vertex 19.526322342754796 6.913309800470225 23.734814070491037
  endloop
endfacet
facet normal 5.53600628559811e-48 -1.0 8.553155680828576e-33
  outer loop
    vertex 15.475965209007981 6.913309800470225 21.844006819072405
    vertex 19.526322342754796 6.913309800470225 23.734814070491037
    vertex 14.052997575112848 6.913309800470225 22.433419311849715
  endloop
endfacet
facet normal 5.53600628559811e-48 -1.0 8.553155680828576e-33
  outer loop
    vertex 14.052997575112848 6.913309800470225 22.433419311849715
    vertex 19.526322342754796 6.913309800470225 23.734814070491037
    vertex 12.525965209007982 6.913309800470225 22.634456936744208
  endloop
endfacet
facet normal 5.53600628559811e-48 -1.0 8.553155680828576e-33
  outer loop
    vertex 12.525965209007982 6.913309800470225 22.634456936744208
    vertex 19.526322342754796 6.913309800470225 23.734814070491037
    vertex 12.525965209007982 6.913309800470225 26.634456936744208
  endloop
endfacet
facet normal 5.53600628559811e-48 -1.0 8.553155680828576e-33
  outer loop
    vertex 12.525965209007982 6.913309800470225 26.634456936744208
    vertex 19.526322342754796 6.913309800470225 23.734814070491037
    vertex 17.475965209007978 6.913309800470225 25.308108434210155
  endloop
endfacet
facet normal 5.53600628559811e-48 -1.0 8.553155680828576e-33
  outer loop
    vertex 12.525965209007982 6.913309800470225 26.634456936744208
    vertex 17.475965209007978 6.913309800470225 25.308108434210155
    vertex 15.088273755522934 6.913309800470225 26.297122617005986
  endloop
endfacet
facet normal 0.6087614290087207 0.0 -0.7933533402912352
  outer loop
    vertex 19.526322342754817 16.913309800470227 9.734099802997397
    vertex 17.475965209007995 6.913309800470225 8.160805439278274
    vertex 17.475965209007995 16.913309800470227 8.160805439278274
  endloop
endfacet
facet normal 0.6087614290087207 0.0 -0.7933533402912352
  outer loop
    vertex 17.475965209007995 6.913309800470225 8.160805439278274
    vertex 19.526322342754817 16.913309800470227 9.734099802997397
    vertex 19.526322342754817 6.913309800470225 9.734099802997397
  endloop
endfacet
facet normal 0.3826834323650913 0.0 -0.9238795325112861
  outer loop
    vertex 17.475965209007995 16.913309800470227 8.160805439278274
    vertex 15.088273755522955 6.913309800470225 7.171791256482438
    vertex 15.088273755522955 16.913309800470227 7.171791256482438
  endloop
endfacet
facet normal 0.3826834323650913 0.0 -0.9238795325112861
  outer loop
    vertex 15.088273755522955 6.913309800470225 7.171791256482438
    vertex 17.475965209007995 16.913309800470227 8.160805439278274
    vertex 17.475965209007995 6.913309800470225 8.160805439278274
  endloop
endfacet
facet normal 0.9238795325112873 0.0 -0.38268343236508834
  outer loop
    vertex 21.099616706473938 16.913309800470227 11.784456936744222
    vertex 22.088630889269762 6.913309800470225 14.172148390229266
    vertex 21.099616706473938 6.913309800470225 11.784456936744222
  endloop
endfacet
facet normal 0.9238795325112873 0.0 -0.38268343236508834
  outer loop
    vertex 22.088630889269762 6.913309800470225 14.172148390229266
    vertex 21.099616706473938 16.913309800470227 11.784456936744222
    vertex 22.088630889269762 16.913309800470227 14.172148390229266
  endloop
endfacet
facet normal 0.13052619222005232 0.0 -0.9914448613738104
  outer loop
    vertex 15.088273755522955 16.913309800470227 7.171791256482438
    vertex 12.525965209007992 6.913309800470225 6.834456936744211
    vertex 12.525965209007992 16.913309800470227 6.834456936744211
  endloop
endfacet
facet normal 0.13052619222005232 0.0 -0.9914448613738104
  outer loop
    vertex 12.525965209007992 6.913309800470225 6.834456936744211
    vertex 15.088273755522955 16.913309800470227 7.171791256482438
    vertex 15.088273755522955 6.913309800470225 7.171791256482438
  endloop
endfacet
facet normal 0.7933533402912363 0.0 -0.6087614290087194
  outer loop
    vertex 19.526322342754817 16.913309800470227 9.734099802997397
    vertex 21.099616706473938 6.913309800470225 11.784456936744222
    vertex 19.526322342754817 6.913309800470225 9.734099802997397
  endloop
endfacet
facet normal 0.7933533402912363 0.0 -0.6087614290087194
  outer loop
    vertex 21.099616706473938 6.913309800470225 11.784456936744222
    vertex 19.526322342754817 16.913309800470227 9.734099802997397
    vertex 21.099616706473938 16.913309800470227 11.784456936744222
  endloop
endfacet
facet normal 0.6087614290087209 0.0 0.793353340291235
  outer loop
    vertex 19.526322342754796 6.913309800470225 23.734814070491037
    vertex 17.475965209007978 16.913309800470227 25.308108434210155
    vertex 17.475965209007978 6.913309800470225 25.308108434210155
  endloop
endfacet
facet normal 0.6087614290087209 0.0 0.793353340291235
  outer loop
    vertex 17.475965209007978 16.913309800470227 25.308108434210155
    vertex 19.526322342754796 6.913309800470225 23.734814070491037
    vertex 19.526322342754796 16.913309800470227 23.734814070491037
  endloop
endfacet
facet normal 0.13052619222005077 3.9420893477615064e-32 0.9914448613738106
  outer loop
    vertex 15.088273755522934 6.913309800470225 26.297122617005986
    vertex 12.525965209007982 16.913309800470227 26.634456936744208
    vertex 12.525965209007982 6.913309800470225 26.634456936744208
  endloop
endfacet
facet normal 0.13052619222005077 3.9420893477615064e-32 0.9914448613738106
  outer loop
    vertex 12.525965209007982 16.913309800470227 26.634456936744208
    vertex 15.088273755522934 6.913309800470225 26.297122617005986
    vertex 15.088273755522934 16.913309800470227 26.297122617005986
  endloop
endfacet
facet normal 0.7933533402912337 0.0 0.6087614290087227
  outer loop
    vertex 21.099616706473928 16.913309800470227 21.684456936744215
    vertex 19.526322342754796 6.913309800470225 23.734814070491037
    vertex 21.099616706473928 6.913309800470225 21.684456936744215
  endloop
endfacet
facet normal 0.7933533402912337 0.0 0.6087614290087227
  outer loop
    vertex 19.526322342754796 6.913309800470225 23.734814070491037
    vertex 21.099616706473928 16.913309800470227 21.684456936744215
    vertex 19.526322342754796 16.913309800470227 23.734814070491037
  endloop
endfacet
facet normal -6.546251982744236e-32 -1.0 3.4212622723314267e-32
  outer loop
    vertex 12.525965209007992 6.913309800470225 10.834456936744209
    vertex 9.963656662493035 6.913309800470225 7.171791256482433
    vertex 12.525965209007992 6.913309800470225 6.834456936744211
  endloop
endfacet
facet normal -6.546251982744236e-32 -1.0 3.4212622723314267e-32
  outer loop
    vertex 9.963656662493035 6.913309800470225 7.171791256482433
    vertex 12.525965209007992 6.913309800470225 10.834456936744209
    vertex 7.575965209007997 6.913309800470225 8.160805439278265
  endloop
endfacet
facet normal -6.546251982744236e-32 -1.0 3.4212622723314267e-32
  outer loop
    vertex 7.575965209007997 6.913309800470225 8.160805439278265
    vertex 12.525965209007992 6.913309800470225 10.834456936744209
    vertex 5.525608075261174 6.913309800470225 9.734099802997385
  endloop
endfacet
facet normal -6.546251982744236e-32 -1.0 3.4212622723314267e-32
  outer loop
    vertex 5.525608075261174 6.913309800470225 9.734099802997385
    vertex 12.525965209007992 6.913309800470225 10.834456936744209
    vertex 3.9523137115420526 6.913309800470225 11.784456936744203
  endloop
endfacet
facet normal -6.546251982744236e-32 -1.0 3.4212622723314267e-32
  outer loop
    vertex 3.9523137115420526 6.913309800470225 11.784456936744203
    vertex 12.525965209007992 6.913309800470225 10.834456936744209
    vertex 10.998932842903121 6.913309800470225 11.035494561638705
  endloop
endfacet
facet normal -6.546251982744236e-32 -1.0 3.4212622723314267e-32
  outer loop
    vertex 3.9523137115420526 6.913309800470225 11.784456936744203
    vertex 10.998932842903121 6.913309800470225 11.035494561638705
    vertex 9.575965209007993 6.913309800470225 11.624907054416019
  endloop
endfacet
facet normal -6.546251982744236e-32 -1.0 3.4212622723314267e-32
  outer loop
    vertex 3.9523137115420526 6.913309800470225 11.784456936744203
    vertex 9.575965209007993 6.913309800470225 11.624907054416019
    vertex 8.35403520000736 6.913309800470225 12.562526927743576
  endloop
endfacet
facet normal -6.546251982744236e-32 -1.0 3.4212622723314267e-32
  outer loop
    vertex 3.9523137115420526 6.913309800470225 11.784456936744203
    vertex 8.35403520000736 6.913309800470225 12.562526927743576
    vertex 2.9632995287462114 6.913309800470225 14.172148390229246
  endloop
endfacet
facet normal -6.546251982744236e-32 -1.0 3.4212622723314267e-32
  outer loop
    vertex 2.9632995287462114 6.913309800470225 14.172148390229246
    vertex 8.35403520000736 6.913309800470225 12.562526927743576
    vertex 7.416415326679798 6.913309800470225 13.784456936744203
  endloop
endfacet
facet normal -6.546251982744236e-32 -1.0 3.4212622723314267e-32
  outer loop
    vertex 2.9632995287462114 6.913309800470225 14.172148390229246
    vertex 7.416415326679798 6.913309800470225 13.784456936744203
    vertex 6.827002833902488 6.913309800470225 15.207424570639331
  endloop
endfacet
facet normal -6.546251982744236e-32 -1.0 3.4212622723314267e-32
  outer loop
    vertex 2.9632995287462114 6.913309800470225 14.172148390229246
    vertex 6.827002833902488 6.913309800470225 15.207424570639331
    vertex 2.6259652090079886 6.913309800470225 16.734456936744202
  endloop
endfacet
facet normal -6.546251982744236e-32 -1.0 3.4212622723314267e-32
  outer loop
    vertex 2.6259652090079886 6.913309800470225 16.734456936744202
    vertex 6.827002833902488 6.913309800470225 15.207424570639331
    vertex 6.625965209007987 6.913309800470225 16.734456936744202
  endloop
endfacet
facet normal -6.546251982744236e-32 -1.0 3.4212622723314267e-32
  outer loop
    vertex 2.6259652090079886 6.913309800470225 16.734456936744202
    vertex 6.625965209007987 6.913309800470225 16.734456936744202
    vertex 6.827002833902482 6.913309800470225 18.261489302849075
  endloop
endfacet
facet normal -6.546251982744236e-32 -1.0 3.4212622723314267e-32
  outer loop
    vertex 2.6259652090079886 6.913309800470225 16.734456936744202
    vertex 6.827002833902482 6.913309800470225 18.261489302849075
    vertex 2.9632995287462114 6.913309800470225 19.296765483259158
  endloop
endfacet
facet normal -6.546251982744236e-32 -1.0 3.4212622723314267e-32
  outer loop
    vertex 2.9632995287462114 6.913309800470225 19.296765483259158
    vertex 6.827002833902482 6.913309800470225 18.261489302849075
    vertex 7.416415326679798 6.913309800470225 19.68445693674421
  endloop
endfacet
facet normal -6.546251982744236e-32 -1.0 3.4212622723314267e-32
  outer loop
    vertex 2.9632995287462114 6.913309800470225 19.296765483259158
    vertex 7.416415326679798 6.913309800470225 19.68445693674421
    vertex 3.952313711542047 6.913309800470225 21.684456936744205
  endloop
endfacet
facet normal -6.546251982744236e-32 -1.0 3.4212622723314267e-32
  outer loop
    vertex 3.952313711542047 6.913309800470225 21.684456936744205
    vertex 7.416415326679798 6.913309800470225 19.68445693674421
    vertex 8.354035200007354 6.913309800470225 20.906386945744835
  endloop
endfacet
facet normal -6.546251982744236e-32 -1.0 3.4212622723314267e-32
  outer loop
    vertex 3.952313711542047 6.913309800470225 21.684456936744205
    vertex 8.354035200007354 6.913309800470225 20.906386945744835
    vertex 9.57596520900798 6.913309800470225 21.84400681907239
  endloop
endfacet
facet normal -6.546251982744236e-32 -1.0 3.4212622723314267e-32
  outer loop
    vertex 3.952313711542047 6.913309800470225 21.684456936744205
    vertex 9.57596520900798 6.913309800470225 21.84400681907239
    vertex 5.525608075261163 6.913309800470225 23.734814070491023
  endloop
endfacet
facet normal -6.546251982744236e-32 -1.0 3.4212622723314267e-32
  outer loop
    vertex 5.525608075261163 6.913309800470225 23.734814070491023
    vertex 9.57596520900798 6.913309800470225 21.84400681907239
    vertex 10.998932842903104 6.913309800470225 22.433419311849708
  endloop
endfacet
facet normal -6.546251982744236e-32 -1.0 3.4212622723314267e-32
  outer loop
    vertex 5.525608075261163 6.913309800470225 23.734814070491023
    vertex 10.998932842903104 6.913309800470225 22.433419311849708
    vertex 12.525965209007982 6.913309800470225 22.634456936744208
  endloop
endfacet
facet normal -6.546251982744236e-32 -1.0 3.4212622723314267e-32
  outer loop
    vertex 5.525608075261163 6.913309800470225 23.734814070491023
    vertex 12.525965209007982 6.913309800470225 22.634456936744208
    vertex 12.525965209007982 6.913309800470225 26.634456936744208
  endloop
endfacet
facet normal -6.546251982744236e-32 -1.0 3.4212622723314267e-32
  outer loop
    vertex 5.525608075261163 6.913309800470225 23.734814070491023
    vertex 12.525965209007982 6.913309800470225 26.634456936744208
    vertex 7.57596520900798 6.913309800470225 25.308108434210148
  endloop
endfacet
facet normal -6.546251982744236e-32 -1.0 3.4212622723314267e-32
  outer loop
    vertex 7.57596520900798 6.913309800470225 25.308108434210148
    vertex 12.525965209007982 6.913309800470225 26.634456936744208
    vertex 9.963656662493024 6.913309800470225 26.297122617005986
  endloop
endfacet
facet normal 4.42610471809903e-16 -1.0 4.9874401496436e-31
  outer loop
    vertex 14.05299757511287 16.91330980047024 11.035494561638709
    vertex 12.525965209007987 16.913309800470238 14.734456936744206
    vertex 12.525965209007992 16.91330980047024 10.834456936744209
  endloop
endfacet
facet normal 4.42610471809903e-16 -1.0 4.9874401496436e-31
  outer loop
    vertex 12.525965209007987 16.913309800470238 14.734456936744206
    vertex 14.05299757511287 16.91330980047024 11.035494561638709
    vertex 15.475965209007994 16.91330980047024 11.624907054416024
  endloop
endfacet
facet normal 4.42610471809903e-16 -1.0 4.9874401496436e-31
  outer loop
    vertex 12.525965209007987 16.913309800470238 14.734456936744206
    vertex 15.475965209007994 16.91330980047024 11.624907054416024
    vertex 16.69789521800862 16.91330980047024 12.562526927743583
  endloop
endfacet
facet normal 4.42610471809903e-16 -1.0 4.9874401496436e-31
  outer loop
    vertex 12.525965209007987 16.913309800470238 14.734456936744206
    vertex 16.69789521800862 16.91330980047024 12.562526927743583
    vertex 17.635515091336178 16.91330980047024 13.784456936744213
  endloop
endfacet
facet normal 4.42610471809903e-16 -1.0 4.9874401496436e-31
  outer loop
    vertex 12.525965209007987 16.913309800470238 14.734456936744206
    vertex 17.635515091336178 16.91330980047024 13.784456936744213
    vertex 18.22492758411349 16.91330980047024 15.207424570639342
  endloop
endfacet
facet normal 4.42610471809903e-16 -1.0 4.9874401496436e-31
  outer loop
    vertex 12.525965209007987 16.913309800470238 14.734456936744206
    vertex 18.22492758411349 16.91330980047024 15.207424570639342
    vertex 13.043603299213032 16.913309800470238 14.80260528416607
  endloop
endfacet
facet normal 4.42610471809903e-16 -1.0 4.9874401496436e-31
  outer loop
    vertex 13.043603299213032 16.913309800470238 14.80260528416607
    vertex 18.22492758411349 16.91330980047024 15.207424570639342
    vertex 13.52596520900799 16.913309800470238 15.00240612917533
  endloop
endfacet
facet normal 4.42610471809903e-16 -1.0 4.9874401496436e-31
  outer loop
    vertex 13.52596520900799 16.913309800470238 15.00240612917533
    vertex 18.22492758411349 16.91330980047024 15.207424570639342
    vertex 13.940178771381087 16.913309800470238 15.320243374371115
  endloop
endfacet
facet normal 4.42610471809903e-16 -1.0 4.9874401496436e-31
  outer loop
    vertex 13.940178771381087 16.913309800470238 15.320243374371115
    vertex 18.22492758411349 16.91330980047024 15.207424570639342
    vertex 18.425965209007988 16.91330980047024 16.734456936744213
  endloop
endfacet
facet normal 4.42610471809903e-16 -1.0 4.9874401496436e-31
  outer loop
    vertex 13.940178771381087 16.913309800470238 15.320243374371115
    vertex 18.425965209007988 16.91330980047024 16.734456936744213
    vertex 14.258016016576866 16.913309800470238 15.73445693674421
  endloop
endfacet
facet normal 4.42610471809903e-16 -1.0 4.9874401496436e-31
  outer loop
    vertex 14.258016016576866 16.913309800470238 15.73445693674421
    vertex 18.425965209007988 16.91330980047024 16.734456936744213
    vertex 14.457816861586126 16.913309800470238 16.21681884653917
  endloop
endfacet
facet normal 4.42610471809903e-16 -1.0 4.9874401496436e-31
  outer loop
    vertex 14.457816861586126 16.913309800470238 16.21681884653917
    vertex 18.425965209007988 16.91330980047024 16.734456936744213
    vertex 14.525965209007989 16.913309800470238 16.734456936744213
  endloop
endfacet
facet normal 4.42610471809903e-16 -1.0 4.9874401496436e-31
  outer loop
    vertex 14.525965209007989 16.913309800470238 16.734456936744213
    vertex 18.425965209007988 16.91330980047024 16.734456936744213
    vertex 14.457816861586126 16.913309800470238 17.252095026949252
  endloop
endfacet
facet normal 4.42610471809903e-16 -1.0 4.9874401496436e-31
  outer loop
    vertex 14.457816861586126 16.913309800470238 17.252095026949252
    vertex 18.425965209007988 16.91330980047024 16.734456936744213
    vertex 18.224927584113487 16.91330980047024 18.261489302849093
  endloop
endfacet
facet normal 4.42610471809903e-16 -1.0 4.9874401496436e-31
  outer loop
    vertex 14.457816861586126 16.913309800470238 17.252095026949252
    vertex 18.224927584113487 16.91330980047024 18.261489302849093
    vertex 14.258016016576866 16.913309800470238 17.734456936744213
  endloop
endfacet
facet normal 4.42610471809903e-16 -1.0 4.9874401496436e-31
  outer loop
    vertex 14.258016016576866 16.913309800470238 17.734456936744213
    vertex 18.224927584113487 16.91330980047024 18.261489302849093
    vertex 13.940178771381087 16.913309800470238 18.14867049911731
  endloop
endfacet
facet normal 4.42610471809903e-16 -1.0 4.9874401496436e-31
  outer loop
    vertex 13.940178771381087 16.913309800470238 18.14867049911731
    vertex 18.224927584113487 16.91330980047024 18.261489302849093
    vertex 13.525965209007985 16.913309800470238 18.46650774431309
  endloop
endfacet
facet normal 4.42610471809903e-16 -1.0 4.9874401496436e-31
  outer loop
    vertex 13.525965209007985 16.913309800470238 18.46650774431309
    vertex 18.224927584113487 16.91330980047024 18.261489302849093
    vertex 17.63551509133617 16.91330980047024 19.684456936744215
  endloop
endfacet
facet normal 4.42610471809903e-16 -1.0 4.9874401496436e-31
  outer loop
    vertex 13.525965209007985 16.913309800470238 18.46650774431309
    vertex 17.63551509133617 16.91330980047024 19.684456936744215
    vertex 13.043603299213027 16.913309800470238 18.666308589322348
  endloop
endfacet
facet normal 4.42610471809903e-16 -1.0 4.9874401496436e-31
  outer loop
    vertex 13.043603299213027 16.913309800470238 18.666308589322348
    vertex 17.63551509133617 16.91330980047024 19.684456936744215
    vertex 12.525965209007987 16.913309800470238 18.73445693674421
  endloop
endfacet
facet normal 4.42610471809903e-16 -1.0 4.9874401496436e-31
  outer loop
    vertex 12.525965209007987 16.913309800470238 18.73445693674421
    vertex 17.63551509133617 16.91330980047024 19.684456936744215
    vertex 12.525965209007982 16.91330980047024 22.634456936744208
  endloop
endfacet
facet normal 4.42610471809903e-16 -1.0 4.9874401496436e-31
  outer loop
    vertex 12.525965209007982 16.91330980047024 22.634456936744208
    vertex 17.63551509133617 16.91330980047024 19.684456936744215
    vertex 16.697895218008615 16.91330980047024 20.906386945744842
  endloop
endfacet
facet normal 4.42610471809903e-16 -1.0 4.9874401496436e-31
  outer loop
    vertex 12.525965209007982 16.91330980047024 22.634456936744208
    vertex 16.697895218008615 16.91330980047024 20.906386945744842
    vertex 15.475965209007981 16.91330980047024 21.844006819072405
  endloop
endfacet
facet normal 4.42610471809903e-16 -1.0 4.9874401496436e-31
  outer loop
    vertex 12.525965209007982 16.91330980047024 22.634456936744208
    vertex 15.475965209007981 16.91330980047024 21.844006819072405
    vertex 14.052997575112848 16.91330980047024 22.433419311849715
  endloop
endfacet
facet normal -0.7933533402912358 0.0 0.6087614290087197
  outer loop
    vertex 17.635515091336178 16.91330980047024 13.784456936744213
    vertex 16.69789521800862 6.913309800470225 12.562526927743583
    vertex 17.635515091336178 6.913309800470225 13.784456936744213
  endloop
endfacet
facet normal -0.7933533402912358 0.0 0.6087614290087197
  outer loop
    vertex 16.69789521800862 6.913309800470225 12.562526927743583
    vertex 17.635515091336178 16.91330980047024 13.784456936744213
    vertex 16.69789521800862 16.91330980047024 12.562526927743583
  endloop
endfacet
facet normal -0.13052619222005257 0.0 0.9914448613738104
  outer loop
    vertex 14.05299757511287 6.913309800470225 11.035494561638709
    vertex 12.525965209007992 16.91330980047024 10.834456936744209
    vertex 12.525965209007992 6.913309800470225 10.834456936744209
  endloop
endfacet
facet normal -0.13052619222005257 0.0 0.9914448613738104
  outer loop
    vertex 12.525965209007992 16.91330980047024 10.834456936744209
    vertex 14.05299757511287 6.913309800470225 11.035494561638709
    vertex 14.05299757511287 16.91330980047024 11.035494561638709
  endloop
endfacet
facet normal -0.3826834323650913 0.0 0.9238795325112861
  outer loop
    vertex 15.475965209007994 6.913309800470225 11.624907054416024
    vertex 14.05299757511287 16.91330980047024 11.035494561638709
    vertex 14.05299757511287 6.913309800470225 11.035494561638709
  endloop
endfacet
facet normal -0.3826834323650913 0.0 0.9238795325112861
  outer loop
    vertex 14.05299757511287 16.91330980047024 11.035494561638709
    vertex 15.475965209007994 6.913309800470225 11.624907054416024
    vertex 15.475965209007994 16.91330980047024 11.624907054416024
  endloop
endfacet
facet normal -0.6087614290087205 0.0 0.7933533402912354
  outer loop
    vertex 16.69789521800862 6.913309800470225 12.562526927743583
    vertex 15.475965209007994 16.91330980047024 11.624907054416024
    vertex 15.475965209007994 6.913309800470225 11.624907054416024
  endloop
endfacet
facet normal -0.6087614290087205 0.0 0.7933533402912354
  outer loop
    vertex 15.475965209007994 16.91330980047024 11.624907054416024
    vertex 16.69789521800862 6.913309800470225 12.562526927743583
    vertex 16.69789521800862 16.91330980047024 12.562526927743583
  endloop
endfacet
facet normal -4.426104718099034e-16 -1.0 -3.5267241546181183e-31
  outer loop
    vertex 12.525965209007987 16.913309800470238 14.734456936744206
    vertex 10.998932842903121 16.91330980047024 11.035494561638705
    vertex 12.525965209007992 16.91330980047024 10.834456936744209
  endloop
endfacet
facet normal -4.426104718099034e-16 -1.0 -3.5267241546181183e-31
  outer loop
    vertex 10.998932842903121 16.91330980047024 11.035494561638705
    vertex 12.525965209007987 16.913309800470238 14.734456936744206
    vertex 9.575965209007993 16.91330980047024 11.624907054416019
  endloop
endfacet
facet normal -4.426104718099034e-16 -1.0 -3.5267241546181183e-31
  outer loop
    vertex 9.575965209007993 16.91330980047024 11.624907054416019
    vertex 12.525965209007987 16.913309800470238 14.734456936744206
    vertex 8.35403520000736 16.91330980047024 12.562526927743576
  endloop
endfacet
facet normal -4.426104718099034e-16 -1.0 -3.5267241546181183e-31
  outer loop
    vertex 8.35403520000736 16.91330980047024 12.562526927743576
    vertex 12.525965209007987 16.913309800470238 14.734456936744206
    vertex 7.416415326679798 16.91330980047024 13.784456936744203
  endloop
endfacet
facet normal -4.426104718099034e-16 -1.0 -3.5267241546181183e-31
  outer loop
    vertex 7.416415326679798 16.91330980047024 13.784456936744203
    vertex 12.525965209007987 16.913309800470238 14.734456936744206
    vertex 6.827002833902488 16.91330980047024 15.207424570639331
  endloop
endfacet
facet normal -4.426104718099034e-16 -1.0 -3.5267241546181183e-31
  outer loop
    vertex 6.827002833902488 16.91330980047024 15.207424570639331
    vertex 12.525965209007987 16.913309800470238 14.734456936744206
    vertex 12.008327118802947 16.913309800470238 14.80260528416607
  endloop
endfacet
facet normal -4.426104718099034e-16 -1.0 -3.5267241546181183e-31
  outer loop
    vertex 6.827002833902488 16.91330980047024 15.207424570639331
    vertex 12.008327118802947 16.913309800470238 14.80260528416607
    vertex 11.525965209007989 16.913309800470238 15.00240612917533
  endloop
endfacet
facet normal -4.426104718099034e-16 -1.0 -3.5267241546181183e-31
  outer loop
    vertex 6.827002833902488 16.91330980047024 15.207424570639331
    vertex 11.525965209007989 16.913309800470238 15.00240612917533
    vertex 11.11175164663489 16.913309800470238 15.32024337437111
  endloop
endfacet
facet normal -4.426104718099034e-16 -1.0 -3.5267241546181183e-31
  outer loop
    vertex 6.827002833902488 16.91330980047024 15.207424570639331
    vertex 11.11175164663489 16.913309800470238 15.32024337437111
    vertex 6.625965209007987 16.91330980047024 16.734456936744202
  endloop
endfacet
facet normal -4.426104718099034e-16 -1.0 -3.5267241546181183e-31
  outer loop
    vertex 6.625965209007987 16.91330980047024 16.734456936744202
    vertex 11.11175164663489 16.913309800470238 15.32024337437111
    vertex 10.793914401439109 16.913309800470238 15.734456936744204
  endloop
endfacet
facet normal -4.426104718099034e-16 -1.0 -3.5267241546181183e-31
  outer loop
    vertex 6.625965209007987 16.91330980047024 16.734456936744202
    vertex 10.793914401439109 16.913309800470238 15.734456936744204
    vertex 10.594113556429848 16.913309800470238 16.216818846539162
  endloop
endfacet
facet normal -4.426104718099034e-16 -1.0 -3.5267241546181183e-31
  outer loop
    vertex 6.625965209007987 16.91330980047024 16.734456936744202
    vertex 10.594113556429848 16.913309800470238 16.216818846539162
    vertex 10.525965209007985 16.913309800470238 16.73445693674421
  endloop
endfacet
facet normal -4.426104718099034e-16 -1.0 -3.5267241546181183e-31
  outer loop
    vertex 6.625965209007987 16.91330980047024 16.734456936744202
    vertex 10.525965209007985 16.913309800470238 16.73445693674421
    vertex 6.827002833902482 16.91330980047024 18.261489302849075
  endloop
endfacet
facet normal -4.426104718099034e-16 -1.0 -3.5267241546181183e-31
  outer loop
    vertex 6.827002833902482 16.91330980047024 18.261489302849075
    vertex 10.525965209007985 16.913309800470238 16.73445693674421
    vertex 10.594113556429848 16.913309800470238 17.25209502694925
  endloop
endfacet
facet normal -4.426104718099034e-16 -1.0 -3.5267241546181183e-31
  outer loop
    vertex 6.827002833902482 16.91330980047024 18.261489302849075
    vertex 10.594113556429848 16.913309800470238 17.25209502694925
    vertex 10.793914401439109 16.913309800470238 17.73445693674421
  endloop
endfacet
facet normal -4.426104718099034e-16 -1.0 -3.5267241546181183e-31
  outer loop
    vertex 6.827002833902482 16.91330980047024 18.261489302849075
    vertex 10.793914401439109 16.913309800470238 17.73445693674421
    vertex 11.11175164663489 16.913309800470238 18.148670499117305
  endloop
endfacet
facet normal -4.426104718099034e-16 -1.0 -3.5267241546181183e-31
  outer loop
    vertex 6.827002833902482 16.91330980047024 18.261489302849075
    vertex 11.11175164663489 16.913309800470238 18.148670499117305
    vertex 11.525965209007984 16.913309800470238 18.46650774431309
  endloop
endfacet
facet normal -4.426104718099034e-16 -1.0 -3.5267241546181183e-31
  outer loop
    vertex 6.827002833902482 16.91330980047024 18.261489302849075
    vertex 11.525965209007984 16.913309800470238 18.46650774431309
    vertex 7.416415326679798 16.91330980047024 19.68445693674421
  endloop
endfacet
facet normal -4.426104718099034e-16 -1.0 -3.5267241546181183e-31
  outer loop
    vertex 7.416415326679798 16.91330980047024 19.68445693674421
    vertex 11.525965209007984 16.913309800470238 18.46650774431309
    vertex 12.008327118802947 16.913309800470238 18.666308589322348
  endloop
endfacet
facet normal -4.426104718099034e-16 -1.0 -3.5267241546181183e-31
  outer loop
    vertex 7.416415326679798 16.91330980047024 19.68445693674421
    vertex 12.008327118802947 16.913309800470238 18.666308589322348
    vertex 12.525965209007987 16.913309800470238 18.73445693674421
  endloop
endfacet
facet normal -4.426104718099034e-16 -1.0 -3.5267241546181183e-31
  outer loop
    vertex 7.416415326679798 16.91330980047024 19.68445693674421
    vertex 12.525965209007987 16.913309800470238 18.73445693674421
    vertex 12.525965209007982 16.91330980047024 22.634456936744208
  endloop
endfacet
facet normal -4.426104718099034e-16 -1.0 -3.5267241546181183e-31
  outer loop
    vertex 7.416415326679798 16.91330980047024 19.68445693674421
    vertex 12.525965209007982 16.91330980047024 22.634456936744208
    vertex 8.354035200007354 16.91330980047024 20.906386945744835
  endloop
endfacet
facet normal -4.426104718099034e-16 -1.0 -3.5267241546181183e-31
  outer loop
    vertex 8.354035200007354 16.91330980047024 20.906386945744835
    vertex 12.525965209007982 16.91330980047024 22.634456936744208
    vertex 9.57596520900798 16.91330980047024 21.84400681907239
  endloop
endfacet
facet normal -4.426104718099034e-16 -1.0 -3.5267241546181183e-31
  outer loop
    vertex 9.57596520900798 16.91330980047024 21.84400681907239
    vertex 12.525965209007982 16.91330980047024 22.634456936744208
    vertex 10.998932842903104 16.91330980047024 22.433419311849708
  endloop
endfacet
facet normal 0.38268343236509045 0.0 -0.9238795325112866
  outer loop
    vertex 10.998932842903104 16.91330980047024 22.433419311849708
    vertex 9.57596520900798 6.913309800470225 21.84400681907239
    vertex 9.57596520900798 16.91330980047024 21.84400681907239
  endloop
endfacet
facet normal 0.38268343236509045 0.0 -0.9238795325112866
  outer loop
    vertex 9.57596520900798 6.913309800470225 21.84400681907239
    vertex 10.998932842903104 16.91330980047024 22.433419311849708
    vertex 10.998932842903104 6.913309800470225 22.433419311849708
  endloop
endfacet
facet normal 0.13052619222005257 0.0 -0.9914448613738104
  outer loop
    vertex 12.525965209007982 16.91330980047024 22.634456936744208
    vertex 10.998932842903104 6.913309800470225 22.433419311849708
    vertex 10.998932842903104 16.91330980047024 22.433419311849708
  endloop
endfacet
facet normal 0.13052619222005257 0.0 -0.9914448613738104
  outer loop
    vertex 10.998932842903104 6.913309800470225 22.433419311849708
    vertex 12.525965209007982 16.91330980047024 22.634456936744208
    vertex 12.525965209007982 6.913309800470225 22.634456936744208
  endloop
endfacet
facet normal 0.6087614290087218 0.0 -0.7933533402912345
  outer loop
    vertex 9.57596520900798 16.91330980047024 21.84400681907239
    vertex 8.354035200007354 6.913309800470225 20.906386945744835
    vertex 8.354035200007354 16.91330980047024 20.906386945744835
  endloop
endfacet
facet normal 0.6087614290087218 0.0 -0.7933533402912345
  outer loop
    vertex 8.354035200007354 6.913309800470225 20.906386945744835
    vertex 9.57596520900798 16.91330980047024 21.84400681907239
    vertex 9.57596520900798 6.913309800470225 21.84400681907239
  endloop
endfacet
facet normal 0.9914448613738099 0.0 0.1305261922200547
  outer loop
    vertex 6.827002833902488 16.91330980047024 15.207424570639331
    vertex 6.625965209007987 6.913309800470225 16.734456936744202
    vertex 6.827002833902488 6.913309800470225 15.207424570639331
  endloop
endfacet
facet normal 0.9914448613738099 0.0 0.1305261922200547
  outer loop
    vertex 6.625965209007987 6.913309800470225 16.734456936744202
    vertex 6.827002833902488 16.91330980047024 15.207424570639331
    vertex 6.625965209007987 16.91330980047024 16.734456936744202
  endloop
endfacet
facet normal 0.793353340291233 0.0 0.6087614290087235
  outer loop
    vertex 8.35403520000736 16.91330980047024 12.562526927743576
    vertex 7.416415326679798 6.913309800470225 13.784456936744203
    vertex 8.35403520000736 6.913309800470225 12.562526927743576
  endloop
endfacet
facet normal 0.793353340291233 0.0 0.6087614290087235
  outer loop
    vertex 7.416415326679798 6.913309800470225 13.784456936744203
    vertex 8.35403520000736 16.91330980047024 12.562526927743576
    vertex 7.416415326679798 16.91330980047024 13.784456936744203
  endloop
endfacet
facet normal 0.13052619222005066 0.0 0.9914448613738106
  outer loop
    vertex 12.525965209007992 6.913309800470225 10.834456936744209
    vertex 10.998932842903121 16.91330980047024 11.035494561638705
    vertex 10.998932842903121 6.913309800470225 11.035494561638705
  endloop
endfacet
facet normal 0.13052619222005066 0.0 0.9914448613738106
  outer loop
    vertex 10.998932842903121 16.91330980047024 11.035494561638705
    vertex 12.525965209007992 6.913309800470225 10.834456936744209
    vertex 12.525965209007992 16.91330980047024 10.834456936744209
  endloop
endfacet
facet normal 0.7933533402912357 0.0 -0.60876142900872
  outer loop
    vertex 7.416415326679798 16.91330980047024 19.68445693674421
    vertex 8.354035200007354 6.913309800470225 20.906386945744835
    vertex 7.416415326679798 6.913309800470225 19.68445693674421
  endloop
endfacet
facet normal 0.7933533402912357 0.0 -0.60876142900872
  outer loop
    vertex 8.354035200007354 6.913309800470225 20.906386945744835
    vertex 7.416415326679798 16.91330980047024 19.68445693674421
    vertex 8.354035200007354 16.91330980047024 20.906386945744835
  endloop
endfacet
facet normal 0.9238795325112872 0.0 -0.3826834323650891
  outer loop
    vertex 6.827002833902482 16.91330980047024 18.261489302849075
    vertex 7.416415326679798 6.913309800470225 19.68445693674421
    vertex 6.827002833902482 6.913309800470225 18.261489302849075
  endloop
endfacet
facet normal 0.9238795325112872 0.0 -0.3826834323650891
  outer loop
    vertex 7.416415326679798 6.913309800470225 19.68445693674421
    vertex 6.827002833902482 16.91330980047024 18.261489302849075
    vertex 7.416415326679798 16.91330980047024 19.68445693674421
  endloop
endfacet
facet normal 0.6087614290087214 0.0 0.7933533402912346
  outer loop
    vertex 9.575965209007993 6.913309800470225 11.624907054416019
    vertex 8.35403520000736 16.91330980047024 12.562526927743576
    vertex 8.35403520000736 6.913309800470225 12.562526927743576
  endloop
endfacet
facet normal 0.6087614290087214 0.0 0.7933533402912346
  outer loop
    vertex 8.35403520000736 16.91330980047024 12.562526927743576
    vertex 9.575965209007993 6.913309800470225 11.624907054416019
    vertex 9.575965209007993 16.91330980047024 11.624907054416019
  endloop
endfacet
facet normal 0.9238795325112876 0.0 0.38268343236508756
  outer loop
    vertex 7.416415326679798 16.91330980047024 13.784456936744203
    vertex 6.827002833902488 6.913309800470225 15.207424570639331
    vertex 7.416415326679798 6.913309800470225 13.784456936744203
  endloop
endfacet
facet normal 0.9238795325112876 0.0 0.38268343236508756
  outer loop
    vertex 6.827002833902488 6.913309800470225 15.207424570639331
    vertex 7.416415326679798 16.91330980047024 13.784456936744203
    vertex 6.827002833902488 16.91330980047024 15.207424570639331
  endloop
endfacet
facet normal 0.9914448613738107 0.0 -0.13052619222005019
  outer loop
    vertex 6.625965209007987 16.91330980047024 16.734456936744202
    vertex 6.827002833902482 6.913309800470225 18.261489302849075
    vertex 6.625965209007987 6.913309800470225 16.734456936744202
  endloop
endfacet
facet normal 0.9914448613738107 0.0 -0.13052619222005019
  outer loop
    vertex 6.827002833902482 6.913309800470225 18.261489302849075
    vertex 6.625965209007987 16.91330980047024 16.734456936744202
    vertex 6.827002833902482 16.91330980047024 18.261489302849075
  endloop
endfacet
facet normal 0.38268343236508895 0.0 0.9238795325112871
  outer loop
    vertex 10.998932842903121 6.913309800470225 11.035494561638705
    vertex 9.575965209007993 16.91330980047024 11.624907054416019
    vertex 9.575965209007993 6.913309800470225 11.624907054416019
  endloop
endfacet
facet normal 0.38268343236508895 0.0 0.9238795325112871
  outer loop
    vertex 9.575965209007993 16.91330980047024 11.624907054416019
    vertex 10.998932842903121 6.913309800470225 11.035494561638705
    vertex 10.998932842903121 16.91330980047024 11.035494561638705
  endloop
endfacet
facet normal -0.38268343236508845 0.0 -0.9238795325112873
  outer loop
    vertex 13.525965209007985 21.913309800470216 18.46650774431309
    vertex 13.043603299213027 16.913309800470238 18.666308589322348
    vertex 13.043603299213027 21.913309800470216 18.666308589322348
  endloop
endfacet
facet normal -0.38268343236508845 0.0 -0.9238795325112873
  outer loop
    vertex 13.043603299213027 16.913309800470238 18.666308589322348
    vertex 13.525965209007985 21.913309800470216 18.46650774431309
    vertex 13.525965209007985 16.913309800470238 18.46650774431309
  endloop
endfacet
facet normal -0.1305261922200513 3.6908040228186086e-20 0.9914448613738104
  outer loop
    vertex 13.043603299213032 16.913309800470238 14.80260528416607
    vertex 12.525965209007987 21.913309800470216 14.734456936744206
    vertex 12.525965209007987 16.913309800470238 14.734456936744206
  endloop
endfacet
facet normal -0.1305261922200513 3.6908040228186086e-20 0.9914448613738104
  outer loop
    vertex 12.525965209007987 21.913309800470216 14.734456936744206
    vertex 13.043603299213032 16.913309800470238 14.80260528416607
    vertex 13.043603299213032 21.913309800470216 14.80260528416607
  endloop
endfacet
facet normal -0.1305261922200516 0.0 -0.9914448613738104
  outer loop
    vertex 13.043603299213027 21.913309800470216 18.666308589322348
    vertex 12.525965209007987 16.913309800470238 18.73445693674421
    vertex 12.525965209007987 21.913309800470216 18.73445693674421
  endloop
endfacet
facet normal -0.1305261922200516 0.0 -0.9914448613738104
  outer loop
    vertex 12.525965209007987 16.913309800470238 18.73445693674421
    vertex 13.043603299213027 21.913309800470216 18.666308589322348
    vertex 13.043603299213027 16.913309800470238 18.666308589322348
  endloop
endfacet
facet normal -0.9238795325112868 0.0 0.3826834323650899
  outer loop
    vertex 14.457816861586126 21.913309800470216 16.21681884653917
    vertex 14.258016016576866 16.913309800470238 15.73445693674421
    vertex 14.457816861586126 16.913309800470238 16.21681884653917
  endloop
endfacet
facet normal -0.9238795325112868 0.0 0.3826834323650899
  outer loop
    vertex 14.258016016576866 16.913309800470238 15.73445693674421
    vertex 14.457816861586126 21.913309800470216 16.21681884653917
    vertex 14.258016016576866 21.913309800470216 15.73445693674421
  endloop
endfacet
facet normal -0.6087614290087157 0.0 -0.7933533402912389
  outer loop
    vertex 13.940178771381087 21.913309800470216 18.14867049911731
    vertex 13.525965209007985 16.913309800470238 18.46650774431309
    vertex 13.525965209007985 21.913309800470216 18.46650774431309
  endloop
endfacet
facet normal -0.6087614290087157 0.0 -0.7933533402912389
  outer loop
    vertex 13.525965209007985 16.913309800470238 18.46650774431309
    vertex 13.940178771381087 21.913309800470216 18.14867049911731
    vertex 13.940178771381087 16.913309800470238 18.14867049911731
  endloop
endfacet
facet normal -0.9914448613738104 0.0 -0.13052619222005196
  outer loop
    vertex 14.457816861586126 21.913309800470216 17.252095026949252
    vertex 14.525965209007989 16.913309800470238 16.734456936744213
    vertex 14.457816861586126 16.913309800470238 17.252095026949252
  endloop
endfacet
facet normal -0.9914448613738104 0.0 -0.13052619222005196
  outer loop
    vertex 14.525965209007989 16.913309800470238 16.734456936744213
    vertex 14.457816861586126 21.913309800470216 17.252095026949252
    vertex 14.525965209007989 21.913309800470216 16.734456936744213
  endloop
endfacet
facet normal -0.7933533402912377 0.0 0.6087614290087175
  outer loop
    vertex 14.258016016576866 21.913309800470216 15.73445693674421
    vertex 13.940178771381087 16.913309800470238 15.320243374371115
    vertex 14.258016016576866 16.913309800470238 15.73445693674421
  endloop
endfacet
facet normal -0.7933533402912377 0.0 0.6087614290087175
  outer loop
    vertex 13.940178771381087 16.913309800470238 15.320243374371115
    vertex 14.258016016576866 21.913309800470216 15.73445693674421
    vertex 13.940178771381087 21.913309800470216 15.320243374371115
  endloop
endfacet
facet normal -0.9914448613738105 0.0 0.13052619222005127
  outer loop
    vertex 14.525965209007989 21.913309800470216 16.734456936744213
    vertex 14.457816861586126 16.913309800470238 16.21681884653917
    vertex 14.525965209007989 16.913309800470238 16.734456936744213
  endloop
endfacet
facet normal -0.9914448613738105 0.0 0.13052619222005127
  outer loop
    vertex 14.457816861586126 16.913309800470238 16.21681884653917
    vertex 14.525965209007989 21.913309800470216 16.734456936744213
    vertex 14.457816861586126 21.913309800470216 16.21681884653917
  endloop
endfacet
facet normal -0.3826834323650918 0.0 0.9238795325112859
  outer loop
    vertex 13.52596520900799 16.913309800470238 15.00240612917533
    vertex 13.043603299213032 21.913309800470216 14.80260528416607
    vertex 13.043603299213032 16.913309800470238 14.80260528416607
  endloop
endfacet
facet normal -0.3826834323650918 0.0 0.9238795325112859
  outer loop
    vertex 13.043603299213032 21.913309800470216 14.80260528416607
    vertex 13.52596520900799 16.913309800470238 15.00240612917533
    vertex 13.52596520900799 21.913309800470216 15.00240612917533
  endloop
endfacet
facet normal -0.6087614290087218 0.0 0.7933533402912344
  outer loop
    vertex 13.940178771381087 16.913309800470238 15.320243374371115
    vertex 13.52596520900799 21.913309800470216 15.00240612917533
    vertex 13.52596520900799 16.913309800470238 15.00240612917533
  endloop
endfacet
facet normal -0.6087614290087218 0.0 0.7933533402912344
  outer loop
    vertex 13.52596520900799 21.913309800470216 15.00240612917533
    vertex 13.940178771381087 16.913309800470238 15.320243374371115
    vertex 13.940178771381087 21.913309800470216 15.320243374371115
  endloop
endfacet
facet normal -0.9238795325112864 0.0 -0.3826834323650909
  outer loop
    vertex 14.258016016576866 21.913309800470216 17.734456936744213
    vertex 14.457816861586126 16.913309800470238 17.252095026949252
    vertex 14.258016016576866 16.913309800470238 17.734456936744213
  endloop
endfacet
facet normal -0.9238795325112864 0.0 -0.3826834323650909
  outer loop
    vertex 14.457816861586126 16.913309800470238 17.252095026949252
    vertex 14.258016016576866 21.913309800470216 17.734456936744213
    vertex 14.457816861586126 21.913309800470216 17.252095026949252
  endloop
endfacet
facet normal -0.793353340291237 0.0 -0.6087614290087184
  outer loop
    vertex 13.940178771381087 21.913309800470216 18.14867049911731
    vertex 14.258016016576866 16.913309800470238 17.734456936744213
    vertex 13.940178771381087 16.913309800470238 18.14867049911731
  endloop
endfacet
facet normal -0.793353340291237 0.0 -0.6087614290087184
  outer loop
    vertex 14.258016016576866 16.913309800470238 17.734456936744213
    vertex 13.940178771381087 21.913309800470216 18.14867049911731
    vertex 14.258016016576866 21.913309800470216 17.734456936744213
  endloop
endfacet
facet normal 0.3826834323650857 0.0 -0.9238795325112884
  outer loop
    vertex 12.008327118802947 21.913309800470216 18.666308589322348
    vertex 11.525965209007984 16.913309800470238 18.46650774431309
    vertex 11.525965209007984 21.913309800470216 18.46650774431309
  endloop
endfacet
facet normal 0.3826834323650857 0.0 -0.9238795325112884
  outer loop
    vertex 11.525965209007984 16.913309800470238 18.46650774431309
    vertex 12.008327118802947 21.913309800470216 18.666308589322348
    vertex 12.008327118802947 16.913309800470238 18.666308589322348
  endloop
endfacet
facet normal 0.6087614290087234 0.0 -0.793353340291233
  outer loop
    vertex 11.525965209007984 21.913309800470216 18.46650774431309
    vertex 11.11175164663489 16.913309800470238 18.148670499117305
    vertex 11.11175164663489 21.913309800470216 18.148670499117305
  endloop
endfacet
facet normal 0.6087614290087234 0.0 -0.793353340291233
  outer loop
    vertex 11.11175164663489 16.913309800470238 18.148670499117305
    vertex 11.525965209007984 21.913309800470216 18.46650774431309
    vertex 11.525965209007984 16.913309800470238 18.46650774431309
  endloop
endfacet
facet normal 0.7933533402912377 0.0 -0.6087614290087175
  outer loop
    vertex 10.793914401439109 21.913309800470216 17.73445693674421
    vertex 11.11175164663489 16.913309800470238 18.148670499117305
    vertex 10.793914401439109 16.913309800470238 17.73445693674421
  endloop
endfacet
facet normal 0.7933533402912377 0.0 -0.6087614290087175
  outer loop
    vertex 11.11175164663489 16.913309800470238 18.148670499117305
    vertex 10.793914401439109 21.913309800470216 17.73445693674421
    vertex 11.11175164663489 21.913309800470216 18.148670499117305
  endloop
endfacet
facet normal 0.9238795325112859 0.0 0.3826834323650918
  outer loop
    vertex 10.793914401439109 21.913309800470216 15.734456936744204
    vertex 10.594113556429848 16.913309800470238 16.216818846539162
    vertex 10.793914401439109 16.913309800470238 15.734456936744204
  endloop
endfacet
facet normal 0.9238795325112859 0.0 0.3826834323650918
  outer loop
    vertex 10.594113556429848 16.913309800470238 16.216818846539162
    vertex 10.793914401439109 21.913309800470216 15.734456936744204
    vertex 10.594113556429848 21.913309800470216 16.216818846539162
  endloop
endfacet
facet normal 0.793353340291237 0.0 0.6087614290087184
  outer loop
    vertex 11.11175164663489 21.913309800470216 15.32024337437111
    vertex 10.793914401439109 16.913309800470238 15.734456936744204
    vertex 11.11175164663489 16.913309800470238 15.32024337437111
  endloop
endfacet
facet normal 0.793353340291237 0.0 0.6087614290087184
  outer loop
    vertex 10.793914401439109 16.913309800470238 15.734456936744204
    vertex 11.11175164663489 21.913309800470216 15.32024337437111
    vertex 10.793914401439109 21.913309800470216 15.734456936744204
  endloop
endfacet
facet normal 0.9238795325112868 0.0 -0.3826834323650899
  outer loop
    vertex 10.594113556429848 21.913309800470216 17.25209502694925
    vertex 10.793914401439109 16.913309800470238 17.73445693674421
    vertex 10.594113556429848 16.913309800470238 17.25209502694925
  endloop
endfacet
facet normal 0.9238795325112868 0.0 -0.3826834323650899
  outer loop
    vertex 10.793914401439109 16.913309800470238 17.73445693674421
    vertex 10.594113556429848 21.913309800470216 17.25209502694925
    vertex 10.793914401439109 21.913309800470216 17.73445693674421
  endloop
endfacet
facet normal 0.13052619222005268 6.934996920953106e-19 -0.9914448613738104
  outer loop
    vertex 12.525965209007987 21.913309800470216 18.73445693674421
    vertex 12.008327118802947 16.913309800470238 18.666308589322348
    vertex 12.008327118802947 21.913309800470216 18.666308589322348
  endloop
endfacet
facet normal 0.13052619222005268 6.934996920953106e-19 -0.9914448613738104
  outer loop
    vertex 12.008327118802947 16.913309800470238 18.666308589322348
    vertex 12.525965209007987 21.913309800470216 18.73445693674421
    vertex 12.525965209007987 16.913309800470238 18.73445693674421
  endloop
endfacet
facet normal 0.38268343236508845 0.0 0.9238795325112873
  outer loop
    vertex 12.008327118802947 16.913309800470238 14.80260528416607
    vertex 11.525965209007989 21.913309800470216 15.00240612917533
    vertex 11.525965209007989 16.913309800470238 15.00240612917533
  endloop
endfacet
facet normal 0.38268343236508845 0.0 0.9238795325112873
  outer loop
    vertex 11.525965209007989 21.913309800470216 15.00240612917533
    vertex 12.008327118802947 16.913309800470238 14.80260528416607
    vertex 12.008327118802947 21.913309800470216 14.80260528416607
  endloop
endfacet
facet normal 0.1305261922200516 7.304077323234992e-19 0.9914448613738104
  outer loop
    vertex 12.525965209007987 16.913309800470238 14.734456936744206
    vertex 12.008327118802947 21.913309800470216 14.80260528416607
    vertex 12.008327118802947 16.913309800470238 14.80260528416607
  endloop
endfacet
facet normal 0.1305261922200516 7.304077323234992e-19 0.9914448613738104
  outer loop
    vertex 12.008327118802947 21.913309800470216 14.80260528416607
    vertex 12.525965209007987 16.913309800470238 14.734456936744206
    vertex 12.525965209007987 21.913309800470216 14.734456936744206
  endloop
endfacet
facet normal 0.9914448613738105 0.0 -0.13052619222005127
  outer loop
    vertex 10.525965209007985 21.913309800470216 16.73445693674421
    vertex 10.594113556429848 16.913309800470238 17.25209502694925
    vertex 10.525965209007985 16.913309800470238 16.73445693674421
  endloop
endfacet
facet normal 0.9914448613738105 0.0 -0.13052619222005127
  outer loop
    vertex 10.594113556429848 16.913309800470238 17.25209502694925
    vertex 10.525965209007985 21.913309800470216 16.73445693674421
    vertex 10.594113556429848 21.913309800470216 17.25209502694925
  endloop
endfacet
facet normal 0.6087614290087157 0.0 0.7933533402912389
  outer loop
    vertex 11.525965209007989 16.913309800470238 15.00240612917533
    vertex 11.11175164663489 21.913309800470216 15.32024337437111
    vertex 11.11175164663489 16.913309800470238 15.32024337437111
  endloop
endfacet
facet normal 0.6087614290087157 0.0 0.7933533402912389
  outer loop
    vertex 11.11175164663489 21.913309800470216 15.32024337437111
    vertex 11.525965209007989 16.913309800470238 15.00240612917533
    vertex 11.525965209007989 21.913309800470216 15.00240612917533
  endloop
endfacet
facet normal -1.0 0.0 -5.412337245047639e-16
  outer loop
    vertex 12.525965209007982 16.913309800470227 26.634456936744208
    vertex 12.525965209007982 6.913309800470225 22.634456936744208
    vertex 12.525965209007982 6.913309800470225 26.634456936744208
  endloop
endfacet
facet normal -1.0 0.0 -5.412337245047639e-16
  outer loop
    vertex 12.525965209007982 6.913309800470225 22.634456936744208
    vertex 12.525965209007982 16.913309800470227 26.634456936744208
    vertex 12.525965209007982 16.91330980047024 22.634456936744208
  endloop
endfacet
facet normal -1.0 0.0 -5.412337245047639e-16
  outer loop
    vertex 12.525965209007982 16.91330980047024 22.634456936744208
    vertex 12.525965209007982 16.913309800470227 26.634456936744208
    vertex 12.525965209007982 21.913309800470216 26.634456936744208
  endloop
endfacet
facet normal -1.0 0.0 -5.412337245047639e-16
  outer loop
    vertex 12.525965209007982 16.91330980047024 22.634456936744208
    vertex 12.525965209007987 21.913309800470216 18.73445693674421
    vertex 12.525965209007987 16.913309800470238 18.73445693674421
  endloop
endfacet
facet normal -1.0 0.0 -5.412337245047639e-16
  outer loop
    vertex 12.525965209007987 21.913309800470216 18.73445693674421
    vertex 12.525965209007982 16.91330980047024 22.634456936744208
    vertex 12.525965209007982 21.913309800470216 26.634456936744208
  endloop
endfacet
facet normal 0.9914448613738105 0.0 0.13052619222005163
  outer loop
    vertex 10.594113556429848 21.913309800470216 16.216818846539162
    vertex 10.525965209007985 16.913309800470238 16.73445693674421
    vertex 10.594113556429848 16.913309800470238 16.216818846539162
  endloop
endfacet
facet normal 0.9914448613738105 0.0 0.13052619222005163
  outer loop
    vertex 10.525965209007985 16.913309800470238 16.73445693674421
    vertex 10.594113556429848 21.913309800470216 16.216818846539162
    vertex 10.525965209007985 21.913309800470216 16.73445693674421
  endloop
endfacet
endsolid i3-Dust-Filter
